<?xml version="1.0" encoding="UTF-8"?><svg xmlns="http://www.w3.org/2000/svg" xmlns:xlink="http://www.w3.org/1999/xlink" version="1.1" id="Ebene_1" x="0px" y="0px" width="3840px" height="1597.3px" viewBox="0 0 3840 1597.3" style="enable-background:new 0 0 3840 1597.3;" xml:space="preserve"><style type="text/css"> .st0{fill:#004F9F;} .st1{fill:none;stroke:#E50076;stroke-width:5;stroke-miterlimit:10;} .st2{fill:#E50076;} .st3{fill:none;stroke:#004F9F;stroke-width:9.2;stroke-miterlimit:10;} .st4{fill:#FFFFFF;} .st5{enable-background:new ;} </style><g id="Ebene_1_00000055709059031401223190000000364360204437967246_"><g><path class="st0" d="M2110.2,1518v-43.2h16.2c3.3,0,6.1,0.6,8.4,1.9c2.3,1.2,4,2.9,5.1,5.1c1.2,2.2,1.7,4.6,1.7,7.4 s-0.6,5.2-1.8,7.4c-1.2,2.2-2.9,3.8-5.2,5.1s-5.1,1.8-8.4,1.8h-10.7v-6.4h9.7c1.9,0,3.5-0.3,4.8-1s2.2-1.6,2.8-2.8 c0.6-1.2,0.9-2.5,0.9-4.1c0-1.5-0.3-2.9-0.9-4c-0.6-1.2-1.5-2.1-2.8-2.7c-1.2-0.7-2.8-1-4.8-1h-7.2v36.7h-7.8V1518z"></path><path class="st0" d="M2148.1,1518v-32.4h7.4v5.4h0.3c0.6-1.9,1.6-3.3,3-4.3s3.1-1.5,4.9-1.5c0.4,0,0.9,0,1.4,0.1 c0.5,0,1,0.1,1.3,0.2v7c-0.3-0.1-0.8-0.2-1.5-0.3c-0.7-0.1-1.4-0.1-2-0.1c-1.4,0-2.6,0.3-3.7,0.9c-1.1,0.6-2,1.4-2.6,2.5 s-0.9,2.3-0.9,3.6v19L2148.1,1518L2148.1,1518z"></path><path class="st0" d="M2175.5,1481c-1.2,0-2.3-0.4-3.1-1.2c-0.9-0.8-1.3-1.8-1.3-2.9c0-1.2,0.4-2.1,1.3-2.9 c0.9-0.8,1.9-1.2,3.1-1.2c1.2,0,2.2,0.4,3.1,1.2c0.9,0.8,1.3,1.8,1.3,2.9s-0.4,2.1-1.3,2.9C2177.7,1480.6,2176.7,1481,2175.5,1481 z M2171.7,1518v-32.4h7.6v32.4H2171.7z"></path><path class="st0" d="M2216.1,1485.6l-11.5,32.4h-8.4l-11.5-32.4h8.1l7.4,24.1h0.3l7.5-24.1H2216.1z"></path><path class="st0" d="M2229.7,1518.7c-2.1,0-3.9-0.4-5.5-1.1s-2.9-1.8-3.9-3.3s-1.4-3.2-1.4-5.4c0-1.8,0.3-3.3,1-4.5 s1.6-2.2,2.8-2.9c1.2-0.7,2.5-1.3,4-1.6c1.5-0.4,3-0.6,4.6-0.8c1.9-0.2,3.4-0.4,4.6-0.5c1.2-0.2,2-0.4,2.6-0.8s0.8-0.9,0.8-1.6 v-0.1c0-1.6-0.5-2.8-1.4-3.7c-0.9-0.9-2.3-1.3-4.1-1.3c-1.9,0-3.4,0.4-4.4,1.2s-1.8,1.8-2.2,2.9l-7.1-1c0.6-2,1.5-3.6,2.8-4.9 s2.9-2.3,4.7-3c1.9-0.7,3.9-1,6.2-1c1.6,0,3.1,0.2,4.7,0.5c1.5,0.4,3,1,4.2,1.8c1.3,0.8,2.3,2,3.1,3.4s1.2,3.2,1.2,5.4v21.7h-7.3 v-4.5h-0.3c-0.5,0.9-1.1,1.7-2,2.5c-0.8,0.8-1.9,1.4-3.1,1.9C2232.9,1518.4,2231.4,1518.7,2229.7,1518.7z M2231.7,1513 c1.5,0,2.9-0.3,4-0.9s2-1.4,2.6-2.4s0.9-2.1,0.9-3.3v-3.8c-0.2,0.2-0.6,0.4-1.2,0.5c-0.6,0.2-1.2,0.3-1.9,0.4s-1.4,0.2-2.1,0.3 c-0.7,0.1-1.3,0.2-1.8,0.3c-1.1,0.2-2.2,0.4-3.1,0.8c-0.9,0.4-1.6,0.8-2.1,1.5c-0.5,0.6-0.8,1.4-0.8,2.4c0,1.4,0.5,2.5,1.5,3.2 C2228.8,1512.7,2230.1,1513,2231.7,1513z"></path><path class="st0" d="M2270.7,1485.6v5.9h-18.6v-5.9H2270.7z M2256.7,1477.8h7.6v30.4c0,1,0.2,1.8,0.5,2.4c0.3,0.5,0.7,0.9,1.3,1.1 c0.5,0.2,1.1,0.3,1.7,0.3c0.5,0,0.9,0,1.3-0.1c0.4-0.1,0.7-0.1,0.9-0.2l1.3,6c-0.4,0.1-1,0.3-1.7,0.5c-0.8,0.2-1.7,0.3-2.8,0.3 c-1.9,0.1-3.6-0.2-5.2-0.9c-1.5-0.6-2.7-1.6-3.6-3c-0.9-1.4-1.3-3-1.3-5.1V1477.8z"></path><path class="st0" d="M2291.1,1518.6c-3.2,0-6.1-0.7-8.4-2s-4.2-3.3-5.4-5.8c-1.3-2.5-1.9-5.4-1.9-8.8c0-3.3,0.6-6.3,1.9-8.8 s3.1-4.5,5.3-5.9c2.3-1.4,5-2.1,8.1-2.1c2,0,3.9,0.3,5.7,1c1.8,0.6,3.4,1.6,4.7,3c1.4,1.3,2.5,3,3.2,5.1c0.8,2.1,1.2,4.5,1.2,7.4 v2.3h-26.6v-5.1h19.2c0-1.5-0.3-2.8-0.9-3.9c-0.6-1.1-1.5-2-2.6-2.7s-2.4-1-3.8-1c-1.6,0-2.9,0.4-4.1,1.1c-1.2,0.8-2.1,1.7-2.8,3 c-0.7,1.2-1,2.5-1,4v4.5c0,1.9,0.3,3.5,1,4.8s1.7,2.4,2.9,3.1s2.7,1.1,4.3,1.1c1.1,0,2.1-0.2,3-0.5s1.7-0.8,2.3-1.4 c0.7-0.6,1.2-1.4,1.5-2.3l7.1,0.8c-0.5,1.9-1.3,3.5-2.6,4.9s-2.9,2.5-4.8,3.2S2293.6,1518.6,2291.1,1518.6z"></path><path class="st0" d="M2364,1489.4h-7.9c-0.2-1.3-0.6-2.4-1.2-3.4c-0.6-1-1.4-1.9-2.3-2.6s-1.9-1.2-3.1-1.6s-2.4-0.5-3.7-0.5 c-2.3,0-4.4,0.6-6.2,1.8s-3.2,2.9-4.3,5.1c-1,2.3-1.5,5-1.5,8.3s0.5,6.1,1.5,8.3c1,2.3,2.5,4,4.3,5.1s3.9,1.7,6.2,1.7 c1.3,0,2.5-0.2,3.6-0.5s2.2-0.9,3.1-1.5c0.9-0.7,1.7-1.5,2.3-2.5s1.1-2.1,1.3-3.4h7.9c-0.3,2.1-0.9,4-1.9,5.8s-2.3,3.4-3.8,4.8 c-1.6,1.4-3.4,2.4-5.5,3.2s-4.5,1.1-7,1.1c-3.8,0-7.2-0.9-10.2-2.6c-3-1.8-5.3-4.3-7-7.6s-2.6-7.3-2.6-11.9c0-4.7,0.9-8.6,2.6-12 c1.7-3.3,4.1-5.8,7.1-7.6s6.4-2.6,10.1-2.6c2.4,0,4.6,0.3,6.7,1s3.9,1.7,5.5,3s3,2.9,4,4.8C2363,1484.8,2363.7,1487,2364,1489.4z"></path><path class="st0" d="M2378.5,1474.8v43.2h-7.6v-43.2H2378.5z"></path><path class="st0" d="M2400.5,1518.6c-3.2,0-5.9-0.7-8.2-2.1s-4.1-3.3-5.4-5.8c-1.3-2.5-1.9-5.4-1.9-8.8c0-3.3,0.6-6.3,1.9-8.8 c1.3-2.5,3.1-4.5,5.4-5.9c2.3-1.4,5.1-2.1,8.2-2.1s5.9,0.7,8.2,2.1s4.1,3.3,5.4,5.9c1.3,2.5,1.9,5.5,1.9,8.8s-0.6,6.3-1.9,8.8 c-1.3,2.5-3.1,4.5-5.4,5.8C2406.4,1517.9,2403.7,1518.6,2400.5,1518.6z M2400.5,1512.5c1.7,0,3.2-0.5,4.3-1.4 c1.2-0.9,2-2.2,2.6-3.8s0.9-3.4,0.9-5.4s-0.3-3.8-0.9-5.4c-0.6-1.6-1.4-2.9-2.6-3.8c-1.2-1-2.6-1.4-4.3-1.4 c-1.8,0-3.2,0.5-4.4,1.4c-1.2,1-2,2.2-2.6,3.8c-0.6,1.6-0.9,3.4-0.9,5.4s0.3,3.8,0.9,5.4s1.4,2.9,2.6,3.8 S2398.8,1512.5,2400.5,1512.5z"></path><path class="st0" d="M2443.1,1504.4v-18.8h7.6v32.4h-7.4v-5.8h-0.3c-0.7,1.8-1.9,3.3-3.6,4.5c-1.7,1.2-3.7,1.7-6.1,1.7 c-2.1,0-4-0.5-5.6-1.4s-2.9-2.3-3.8-4.2c-0.9-1.8-1.4-4-1.4-6.6v-20.6h7.6v19.4c0,2.1,0.6,3.7,1.7,4.9c1.1,1.2,2.6,1.8,4.4,1.8 c1.1,0,2.2-0.3,3.3-0.8s1.9-1.4,2.6-2.5C2442.8,1507.4,2443.1,1506,2443.1,1504.4z"></path><path class="st0" d="M2470.6,1518.6c-2.5,0-4.8-0.7-6.8-2s-3.6-3.2-4.8-5.7s-1.8-5.5-1.8-9.1s0.6-6.6,1.8-9.1s2.8-4.4,4.8-5.6 c2-1.3,4.3-1.9,6.8-1.9c1.9,0,3.5,0.3,4.7,1c1.2,0.6,2.2,1.4,2.9,2.3s1.3,1.7,1.7,2.5h0.3v-16.2h7.7v43.2h-7.5v-5.1h-0.5 c-0.4,0.8-1,1.6-1.7,2.5s-1.7,1.6-3,2.2C2474,1518.3,2472.5,1518.6,2470.6,1518.6z M2472.8,1512.3c1.6,0,3-0.4,4.1-1.3 s2-2.1,2.6-3.7s0.9-3.4,0.9-5.5s-0.3-3.9-0.9-5.5c-0.6-1.5-1.4-2.8-2.6-3.6s-2.5-1.3-4.2-1.3s-3.1,0.4-4.3,1.3 c-1.1,0.9-2,2.1-2.6,3.7s-0.9,3.3-0.9,5.4c0,2,0.3,3.8,0.9,5.4c0.6,1.6,1.4,2.8,2.6,3.7 C2469.7,1511.9,2471.1,1512.3,2472.8,1512.3z"></path></g><g><path class="st0" d="M1036.9,599.4v32.1h-3.9v-32.1H1036.9z"></path><path class="st0" d="M1048.3,617v14.5h-3.7v-24.1h3.6v3.8h0.3c0.6-1.2,1.4-2.2,2.6-3c1.1-0.7,2.6-1.1,4.5-1.1c1.6,0,3.1,0.3,4.3,1 c1.2,0.7,2.2,1.7,2.9,3s1,3,1,5.1v15.3h-3.7v-15.1c0-1.9-0.5-3.4-1.5-4.4c-1-1.1-2.3-1.6-4-1.6c-1.2,0-2.2,0.3-3.2,0.8 c-0.9,0.5-1.7,1.3-2.2,2.2C1048.6,614.4,1048.3,615.6,1048.3,617z"></path><path class="st0" d="M1080,632c-2,0-3.8-0.5-5.3-1.5s-2.7-2.5-3.6-4.3s-1.3-4.1-1.3-6.6s0.4-4.7,1.3-6.6c0.9-1.9,2.1-3.3,3.6-4.3 s3.3-1.5,5.4-1.5c1.6,0,2.8,0.3,3.7,0.8c0.9,0.5,1.6,1.1,2.1,1.8s0.9,1.2,1.1,1.6h0.3v-11.9h3.7v32.1h-3.6v-3.7h-0.4 c-0.3,0.4-0.7,1-1.2,1.7s-1.2,1.3-2.1,1.8S1081.5,632,1080,632z M1080.5,628.7c1.5,0,2.7-0.4,3.8-1.2c1-0.8,1.8-1.9,2.3-3.2 c0.5-1.4,0.8-3,0.8-4.8s-0.3-3.4-0.8-4.7c-0.5-1.4-1.3-2.4-2.3-3.2s-2.3-1.1-3.8-1.1c-1.6,0-2.9,0.4-3.9,1.2s-1.8,1.9-2.3,3.2 c-0.5,1.4-0.8,2.9-0.8,4.6c0,1.7,0.3,3.3,0.8,4.7s1.3,2.5,2.4,3.3C1077.6,628.2,1078.9,628.7,1080.5,628.7z"></path><path class="st0" d="M1108.8,632c-2.3,0-4.3-0.5-6-1.5s-3-2.5-3.9-4.3c-0.9-1.9-1.4-4-1.4-6.5s0.5-4.6,1.4-6.5s2.2-3.4,3.8-4.4 c1.6-1.1,3.5-1.6,5.7-1.6c1.3,0,2.5,0.2,3.7,0.6c1.2,0.4,2.3,1.1,3.3,2s1.8,2.2,2.4,3.7s0.9,3.4,0.9,5.7v1.6h-18.5v-3.2h14.8 c0-1.4-0.3-2.6-0.8-3.6s-1.3-1.9-2.3-2.5s-2.2-0.9-3.5-0.9c-1.5,0-2.7,0.4-3.8,1.1c-1.1,0.7-1.9,1.7-2.5,2.8 c-0.6,1.2-0.9,2.4-0.9,3.7v2.1c0,1.8,0.3,3.4,0.9,4.6c0.6,1.3,1.5,2.2,2.6,2.9s2.4,1,3.9,1c1,0,1.9-0.1,2.6-0.4 c0.8-0.3,1.5-0.7,2-1.3c0.6-0.6,1-1.3,1.3-2.1l3.6,1c-0.4,1.2-1,2.3-1.9,3.2s-2,1.6-3.3,2.1C1111.9,631.7,1110.5,632,1108.8,632z"></path><path class="st0" d="M1124.9,640.5v-33.1h3.6v3.8h0.4c0.3-0.4,0.7-1,1.1-1.6c0.5-0.7,1.2-1.2,2.1-1.8c0.9-0.5,2.2-0.8,3.7-0.8 c2,0,3.8,0.5,5.4,1.5c1.5,1,2.8,2.5,3.6,4.3c0.9,1.9,1.3,4.1,1.3,6.6c0,2.6-0.4,4.8-1.3,6.6s-2.1,3.3-3.6,4.3s-3.3,1.5-5.3,1.5 c-1.5,0-2.8-0.3-3.7-0.8c-0.9-0.5-1.6-1.1-2.1-1.8s-0.9-1.2-1.2-1.7h-0.3v12.7h-3.7V640.5z M1128.5,619.4c0,1.8,0.3,3.4,0.8,4.8 c0.5,1.4,1.3,2.5,2.3,3.2c1,0.8,2.3,1.2,3.8,1.2s2.8-0.4,3.9-1.2c1-0.8,1.8-1.9,2.4-3.3c0.5-1.4,0.8-3,0.8-4.7s-0.3-3.2-0.8-4.6 c-0.5-1.4-1.3-2.4-2.3-3.2s-2.3-1.2-3.9-1.2c-1.5,0-2.8,0.4-3.8,1.1c-1,0.8-1.8,1.8-2.3,3.2 C1128.8,616.1,1128.5,617.6,1128.5,619.4z"></path><path class="st0" d="M1162.3,632c-2.3,0-4.3-0.5-6-1.5s-3-2.5-3.9-4.3c-0.9-1.9-1.4-4-1.4-6.5s0.5-4.6,1.4-6.5s2.2-3.4,3.8-4.4 c1.6-1.1,3.5-1.6,5.7-1.6c1.3,0,2.5,0.2,3.7,0.6c1.2,0.4,2.3,1.1,3.3,2s1.8,2.2,2.4,3.7s0.9,3.4,0.9,5.7v1.6h-18.6v-3.2h14.8 c0-1.4-0.3-2.6-0.8-3.6s-1.3-1.9-2.3-2.5s-2.2-0.9-3.5-0.9c-1.5,0-2.7,0.4-3.8,1.1c-1.1,0.7-1.9,1.7-2.5,2.8 c-0.6,1.2-0.9,2.4-0.9,3.7v2.1c0,1.8,0.3,3.4,0.9,4.6c0.6,1.3,1.5,2.2,2.6,2.9s2.4,1,3.9,1c1,0,1.9-0.1,2.6-0.4 c0.8-0.3,1.5-0.7,2-1.3c0.6-0.6,1-1.3,1.3-2.1l3.6,1c-0.4,1.2-1,2.3-1.9,3.2s-2,1.6-3.3,2.1C1165.4,631.7,1164,632,1162.3,632z"></path><path class="st0" d="M1182.1,617v14.5h-3.7v-24.1h3.6v3.8h0.3c0.6-1.2,1.4-2.2,2.6-3c1.1-0.7,2.6-1.1,4.5-1.1c1.6,0,3.1,0.3,4.3,1 c1.2,0.7,2.2,1.7,2.9,3s1,3,1,5.1v15.3h-3.7v-15.1c0-1.9-0.5-3.4-1.5-4.4c-1-1.1-2.3-1.6-4-1.6c-1.2,0-2.2,0.3-3.2,0.8 c-0.9,0.5-1.7,1.3-2.2,2.2C1182.4,614.4,1182.1,615.6,1182.1,617z"></path><path class="st0" d="M1213.8,632c-2,0-3.8-0.5-5.3-1.5s-2.7-2.5-3.6-4.3s-1.3-4.1-1.3-6.6s0.4-4.7,1.3-6.6 c0.9-1.9,2.1-3.3,3.6-4.3s3.3-1.5,5.4-1.5c1.6,0,2.8,0.3,3.7,0.8c0.9,0.5,1.6,1.1,2.1,1.8s0.9,1.2,1.1,1.6h0.3v-11.9h3.7v32.1 h-3.6v-3.7h-0.4c-0.3,0.4-0.7,1-1.2,1.7s-1.2,1.3-2.1,1.8S1215.3,632,1213.8,632z M1214.3,628.7c1.5,0,2.7-0.4,3.8-1.2 c1-0.8,1.8-1.9,2.3-3.2c0.5-1.4,0.8-3,0.8-4.8s-0.3-3.4-0.8-4.7c-0.5-1.4-1.3-2.4-2.3-3.2s-2.3-1.1-3.8-1.1 c-1.6,0-2.9,0.4-3.9,1.2s-1.8,1.9-2.3,3.2c-0.5,1.4-0.8,2.9-0.8,4.6c0,1.7,0.3,3.3,0.8,4.7s1.3,2.5,2.4,3.3 C1211.4,628.2,1212.7,628.7,1214.3,628.7z"></path><path class="st0" d="M1242.6,632c-2.3,0-4.3-0.5-6-1.5s-3-2.5-3.9-4.3c-0.9-1.9-1.4-4-1.4-6.5s0.5-4.6,1.4-6.5s2.2-3.4,3.8-4.4 c1.6-1.1,3.5-1.6,5.7-1.6c1.3,0,2.5,0.2,3.7,0.6c1.2,0.4,2.3,1.1,3.3,2s1.8,2.2,2.4,3.7s0.9,3.4,0.9,5.7v1.6h-18.6v-3.2h14.8 c0-1.4-0.3-2.6-0.8-3.6s-1.3-1.9-2.3-2.5s-2.2-0.9-3.5-0.9c-1.5,0-2.7,0.4-3.8,1.1c-1.1,0.7-1.9,1.7-2.5,2.8 c-0.6,1.2-0.9,2.4-0.9,3.7v2.1c0,1.8,0.3,3.4,0.9,4.6c0.6,1.3,1.5,2.2,2.6,2.9s2.4,1,3.9,1c1,0,1.9-0.1,2.6-0.4 c0.8-0.3,1.5-0.7,2-1.3c0.6-0.6,1-1.3,1.3-2.1l3.6,1c-0.4,1.2-1,2.3-1.9,3.2s-2,1.6-3.3,2.1C1245.7,631.7,1244.3,632,1242.6,632z"></path><path class="st0" d="M1262.4,617v14.5h-3.7v-24.1h3.6v3.8h0.3c0.6-1.2,1.4-2.2,2.6-3c1.1-0.7,2.6-1.1,4.5-1.1c1.6,0,3.1,0.3,4.3,1 c1.2,0.7,2.2,1.7,2.9,3s1,3,1,5.1v15.3h-3.7v-15.1c0-1.9-0.5-3.4-1.5-4.4c-1-1.1-2.3-1.6-4-1.6c-1.2,0-2.2,0.3-3.2,0.8 c-0.9,0.5-1.7,1.3-2.2,2.2C1262.7,614.4,1262.4,615.6,1262.4,617z"></path><path class="st0" d="M1295.5,607.4v3.1H1283v-3.1H1295.5z M1286.6,601.6h3.7v23c0,1,0.2,1.8,0.5,2.3s0.7,0.9,1.2,1s1,0.3,1.5,0.3 c0.4,0,0.7,0,1-0.1c0.3,0,0.5-0.1,0.6-0.1l0.8,3.3c-0.3,0.1-0.6,0.2-1.1,0.3c-0.4,0.1-1,0.1-1.7,0.1c-1,0-2.1-0.2-3.1-0.7 c-1-0.4-1.8-1.1-2.5-2.1c-0.7-0.9-1-2.1-1-3.5L1286.6,601.6L1286.6,601.6z"></path><path class="st0" d="M1068.4,684.5l-8.8-32.1h4l6.7,26.2h0.3l6.8-26.2h4.4l6.8,26.2h0.3l6.7-26.2h4l-8.8,32.1h-4l-7.1-25.6h-0.3 l-7.1,25.6H1068.4z"></path><path class="st0" d="M1112,685c-2.2,0-4.1-0.5-5.7-1.6c-1.6-1-2.9-2.5-3.8-4.3c-0.9-1.9-1.4-4-1.4-6.5s0.5-4.7,1.4-6.6 c0.9-1.9,2.2-3.3,3.8-4.4c1.6-1,3.5-1.6,5.7-1.6s4.1,0.5,5.7,1.6c1.6,1,2.9,2.5,3.8,4.4s1.4,4.1,1.4,6.6s-0.5,4.7-1.4,6.5 c-0.9,1.9-2.2,3.3-3.8,4.3C1116,684.5,1114.1,685,1112,685z M1112,681.6c1.7,0,3-0.4,4.1-1.3c1.1-0.8,1.9-2,2.4-3.3 c0.5-1.4,0.8-2.9,0.8-4.5s-0.3-3.1-0.8-4.5s-1.3-2.5-2.4-3.4s-2.4-1.3-4.1-1.3s-3,0.4-4.1,1.3c-1.1,0.9-1.9,2-2.4,3.4 s-0.8,2.9-0.8,4.5s0.3,3.1,0.8,4.5s1.3,2.5,2.4,3.3C1108.9,681.2,1110.3,681.6,1112,681.6z"></path><path class="st0" d="M1129,684.5v-24.1h3.6v3.6h0.3c0.4-1.2,1.2-2.2,2.4-2.9s2.4-1.1,3.9-1.1c0.3,0,0.6,0,1,0s0.7,0,0.9,0v3.8 c-0.1,0-0.4-0.1-0.9-0.1s-0.9-0.1-1.4-0.1c-1.2,0-2.2,0.2-3.1,0.7s-1.6,1.2-2.2,2c-0.5,0.9-0.8,1.8-0.8,2.9v15.2L1129,684.5 L1129,684.5z"></path><path class="st0" d="M1145.8,684.5v-32.1h3.7v32.1H1145.8z M1149.3,675.7l-0.1-4.6h0.8l10.5-10.7h4.6l-11.2,11.4h-0.3 L1149.3,675.7z M1161.1,684.5l-9.4-11.9l2.6-2.6l11.5,14.5H1161.1z"></path><path class="st0" d="M1174,652.4v32.1h-3.7v-32.1H1174z"></path><path class="st0" d="M1191,685c-2.2,0-4.1-0.5-5.7-1.6c-1.6-1-2.9-2.5-3.8-4.3c-0.9-1.9-1.4-4-1.4-6.5s0.5-4.7,1.4-6.6 c0.9-1.9,2.2-3.3,3.8-4.4c1.6-1,3.5-1.6,5.7-1.6s4.1,0.5,5.7,1.6c1.6,1,2.9,2.5,3.8,4.4s1.4,4.1,1.4,6.6s-0.5,4.7-1.4,6.5 c-0.9,1.9-2.2,3.3-3.8,4.3C1195.1,684.5,1193.2,685,1191,685z M1191,681.6c1.7,0,3-0.4,4.1-1.3c1.1-0.8,1.9-2,2.4-3.3 c0.5-1.4,0.8-2.9,0.8-4.5s-0.3-3.1-0.8-4.5s-1.3-2.5-2.4-3.4s-2.4-1.3-4.1-1.3s-3,0.4-4.1,1.3c-1.1,0.9-1.9,2-2.4,3.4 s-0.8,2.9-0.8,4.5s0.3,3.1,0.8,4.5s1.3,2.5,2.4,3.3C1188,681.2,1189.4,681.6,1191,681.6z"></path><path class="st0" d="M1215.1,685c-1.5,0-2.9-0.3-4.2-0.9c-1.2-0.6-2.2-1.4-3-2.5c-0.7-1.1-1.1-2.4-1.1-4c0-1.4,0.3-2.5,0.8-3.4 s1.3-1.5,2.2-2c0.9-0.5,1.9-0.9,3-1.1s2.2-0.4,3.3-0.6c1.5-0.2,2.7-0.3,3.6-0.4c0.9-0.1,1.6-0.3,2-0.5s0.6-0.7,0.6-1.3v-0.1 c0-1.5-0.4-2.7-1.3-3.6c-0.8-0.9-2.1-1.3-3.8-1.3c-1.8,0-3.2,0.4-4.2,1.2s-1.7,1.6-2.1,2.5l-3.5-1.3c0.6-1.5,1.5-2.6,2.5-3.4 c1.1-0.8,2.2-1.4,3.4-1.7c1.2-0.3,2.5-0.5,3.7-0.5c0.8,0,1.7,0.1,2.7,0.3s2,0.6,2.9,1.1s1.7,1.4,2.4,2.6c0.6,1.1,0.9,2.7,0.9,4.6 v15.9h-3.7v-3.3h-0.2c-0.3,0.5-0.7,1.1-1.3,1.7c-0.6,0.6-1.4,1.1-2.3,1.5C1217.7,684.8,1216.5,685,1215.1,685z M1215.7,681.7 c1.5,0,2.7-0.3,3.7-0.9c1-0.6,1.8-1.3,2.3-2.2s0.8-1.9,0.8-2.9v-3.4c-0.2,0.2-0.5,0.4-1,0.5c-0.5,0.2-1.1,0.3-1.8,0.4 c-0.7,0.1-1.3,0.2-2,0.3c-0.6,0.1-1.2,0.1-1.6,0.2c-1,0.1-1.9,0.3-2.7,0.6s-1.5,0.7-2,1.2s-0.8,1.3-0.8,2.2c0,1.3,0.5,2.3,1.4,2.9 C1213,681.4,1214.2,681.7,1215.7,681.7z"></path><path class="st0" d="M1242.4,685c-2,0-3.8-0.5-5.3-1.5s-2.7-2.5-3.6-4.3s-1.3-4.1-1.3-6.6s0.4-4.7,1.3-6.6 c0.9-1.9,2.1-3.3,3.6-4.3s3.3-1.5,5.4-1.5c1.6,0,2.8,0.3,3.7,0.8c0.9,0.5,1.6,1.1,2.1,1.8s0.9,1.2,1.1,1.6h0.3v-11.9h3.7v32.1 h-3.6v-3.7h-0.4c-0.3,0.4-0.7,1-1.2,1.7s-1.2,1.3-2.1,1.8S1244,685,1242.4,685z M1242.9,681.6c1.5,0,2.7-0.4,3.8-1.2 c1-0.8,1.8-1.9,2.3-3.2c0.5-1.4,0.8-3,0.8-4.8s-0.3-3.4-0.8-4.7c-0.5-1.4-1.3-2.4-2.3-3.2s-2.3-1.1-3.8-1.1 c-1.6,0-2.9,0.4-3.9,1.2s-1.8,1.9-2.3,3.2c-0.5,1.4-0.8,2.9-0.8,4.6c0,1.7,0.3,3.3,0.8,4.7s1.3,2.5,2.4,3.3 C1240.1,681.2,1241.4,681.6,1242.9,681.6z"></path><path class="st0" d="M1278.3,665.8l-3.3,0.9c-0.2-0.6-0.5-1.1-0.9-1.6s-0.9-1-1.6-1.3s-1.6-0.5-2.7-0.5c-1.5,0-2.7,0.3-3.7,1 s-1.5,1.5-1.5,2.6c0,0.9,0.3,1.6,1,2.2c0.7,0.5,1.7,1,3.1,1.3l3.6,0.9c2.2,0.5,3.8,1.3,4.8,2.4c1.1,1.1,1.6,2.4,1.6,4.1 c0,1.4-0.4,2.6-1.2,3.7s-1.9,1.9-3.3,2.6c-1.4,0.6-3.1,0.9-4.9,0.9c-2.5,0-4.5-0.5-6.1-1.6s-2.6-2.6-3.1-4.7l3.5-0.9 c0.3,1.3,1,2.3,1.9,2.9c0.9,0.6,2.2,1,3.7,1c1.7,0,3.1-0.4,4.1-1.1c1-0.7,1.5-1.6,1.5-2.7c0-0.8-0.3-1.5-0.9-2.1s-1.5-1-2.7-1.3 l-4-0.9c-2.2-0.5-3.8-1.3-4.9-2.4c-1-1.1-1.5-2.5-1.5-4.1c0-1.4,0.4-2.6,1.2-3.6c0.8-1,1.8-1.9,3.2-2.5c1.3-0.6,2.8-0.9,4.5-0.9 c2.4,0,4.3,0.5,5.6,1.6S1277.7,664.1,1278.3,665.8z"></path></g><g><path class="st0" d="M1261.2,1110.4v32.1h-3.9v-32.1H1261.2z"></path><path class="st0" d="M1272.6,1128v14.5h-3.7v-24.1h3.6v3.8h0.3c0.6-1.2,1.4-2.2,2.6-3c1.1-0.7,2.6-1.1,4.5-1.1 c1.6,0,3.1,0.3,4.3,1s2.2,1.7,2.9,3c0.7,1.3,1,3,1,5.1v15.3h-3.7v-15.1c0-1.9-0.5-3.4-1.5-4.4c-1-1.1-2.3-1.6-4-1.6 c-1.2,0-2.2,0.3-3.2,0.8c-0.9,0.5-1.7,1.3-2.2,2.2C1272.9,1125.4,1272.6,1126.6,1272.6,1128z"></path><path class="st0" d="M1304.3,1143c-2,0-3.8-0.5-5.3-1.5s-2.7-2.5-3.6-4.3s-1.3-4.1-1.3-6.6s0.4-4.7,1.3-6.6s2.1-3.3,3.6-4.3 s3.3-1.5,5.4-1.5c1.6,0,2.8,0.3,3.7,0.8c0.9,0.5,1.6,1.1,2.1,1.8c0.5,0.7,0.9,1.2,1.1,1.6h0.3v-11.9h3.7v32.1h-3.6v-3.7h-0.4 c-0.3,0.4-0.7,1-1.2,1.7s-1.2,1.3-2.1,1.8S1305.8,1143,1304.3,1143z M1304.8,1139.7c1.5,0,2.7-0.4,3.8-1.2c1-0.8,1.8-1.9,2.3-3.2 c0.5-1.4,0.8-3,0.8-4.8s-0.3-3.4-0.8-4.7c-0.5-1.4-1.3-2.4-2.3-3.2c-1-0.8-2.3-1.1-3.8-1.1c-1.6,0-2.9,0.4-3.9,1.2 c-1,0.8-1.8,1.9-2.3,3.2s-0.8,2.9-0.8,4.6s0.3,3.3,0.8,4.7c0.5,1.4,1.3,2.5,2.4,3.3C1302,1139.3,1303.2,1139.7,1304.8,1139.7z"></path><path class="st0" d="M1333.2,1143c-2.3,0-4.3-0.5-6-1.5s-3-2.5-3.9-4.3s-1.4-4-1.4-6.5s0.5-4.6,1.4-6.5s2.2-3.4,3.8-4.4 c1.6-1.1,3.5-1.6,5.7-1.6c1.3,0,2.5,0.2,3.7,0.6s2.3,1.1,3.3,2s1.8,2.2,2.4,3.7s0.9,3.4,0.9,5.7v1.6h-18.6v-3.2h14.8 c0-1.4-0.3-2.6-0.8-3.6s-1.3-1.9-2.3-2.5s-2.2-0.9-3.5-0.9c-1.5,0-2.7,0.4-3.8,1.1c-1.1,0.7-1.9,1.7-2.5,2.8 c-0.6,1.2-0.9,2.4-0.9,3.7v2.1c0,1.8,0.3,3.4,0.9,4.6s1.5,2.2,2.6,2.9c1.1,0.7,2.4,1,3.9,1c1,0,1.9-0.1,2.6-0.4 c0.8-0.3,1.5-0.7,2-1.3c0.6-0.6,1-1.3,1.3-2.1l3.6,1c-0.4,1.2-1,2.3-1.9,3.2s-2,1.6-3.3,2.1 C1336.2,1142.7,1334.8,1143,1333.2,1143z"></path><path class="st0" d="M1349.2,1151.5v-33.1h3.6v3.8h0.4c0.3-0.4,0.7-1,1.1-1.6c0.5-0.7,1.2-1.2,2.1-1.8c0.9-0.5,2.2-0.8,3.7-0.8 c2,0,3.8,0.5,5.4,1.5c1.5,1,2.8,2.5,3.6,4.3c0.9,1.9,1.3,4.1,1.3,6.6c0,2.6-0.4,4.8-1.3,6.6s-2.1,3.3-3.6,4.3s-3.3,1.5-5.3,1.5 c-1.5,0-2.8-0.3-3.7-0.8c-0.9-0.5-1.6-1.1-2.1-1.8c-0.5-0.7-0.9-1.2-1.2-1.7h-0.3v12.7h-3.7V1151.5z M1352.8,1130.4 c0,1.8,0.3,3.4,0.8,4.8s1.3,2.5,2.3,3.2c1,0.8,2.3,1.2,3.8,1.2s2.8-0.4,3.9-1.2c1-0.8,1.8-1.9,2.4-3.3c0.5-1.4,0.8-3,0.8-4.7 s-0.3-3.2-0.8-4.6s-1.3-2.4-2.3-3.2c-1-0.8-2.3-1.2-3.9-1.2c-1.5,0-2.8,0.4-3.8,1.1s-1.8,1.8-2.3,3.2 C1353.1,1127.1,1352.8,1128.6,1352.8,1130.4z"></path><path class="st0" d="M1386.7,1143c-2.3,0-4.3-0.5-6-1.5s-3-2.5-3.9-4.3s-1.4-4-1.4-6.5s0.5-4.6,1.4-6.5s2.2-3.4,3.8-4.4 c1.6-1.1,3.5-1.6,5.7-1.6c1.3,0,2.5,0.2,3.7,0.6s2.3,1.1,3.3,2s1.8,2.2,2.4,3.7s0.9,3.4,0.9,5.7v1.6H1378v-3.2h14.8 c0-1.4-0.3-2.6-0.8-3.6s-1.3-1.9-2.3-2.5s-2.2-0.9-3.5-0.9c-1.5,0-2.7,0.4-3.8,1.1c-1.1,0.7-1.9,1.7-2.5,2.8 c-0.6,1.2-0.9,2.4-0.9,3.7v2.1c0,1.8,0.3,3.4,0.9,4.6s1.5,2.2,2.6,2.9c1.1,0.7,2.4,1,3.9,1c1,0,1.9-0.1,2.6-0.4 c0.8-0.3,1.5-0.7,2-1.3c0.6-0.6,1-1.3,1.3-2.1l3.6,1c-0.4,1.2-1,2.3-1.9,3.2s-2,1.6-3.3,2.1 C1389.8,1142.7,1388.3,1143,1386.7,1143z"></path><path class="st0" d="M1406.4,1128v14.5h-3.7v-24.1h3.6v3.8h0.3c0.6-1.2,1.4-2.2,2.6-3c1.1-0.7,2.6-1.1,4.5-1.1 c1.6,0,3.1,0.3,4.3,1s2.2,1.7,2.9,3c0.7,1.3,1,3,1,5.1v15.3h-3.7v-15.1c0-1.9-0.5-3.4-1.5-4.4c-1-1.1-2.3-1.6-4-1.6 c-1.2,0-2.2,0.3-3.2,0.8c-0.9,0.5-1.7,1.3-2.2,2.2C1406.7,1125.4,1406.4,1126.6,1406.4,1128z"></path><path class="st0" d="M1438.1,1143c-2,0-3.8-0.5-5.3-1.5s-2.7-2.5-3.6-4.3s-1.3-4.1-1.3-6.6s0.4-4.7,1.3-6.6s2.1-3.3,3.6-4.3 s3.3-1.5,5.4-1.5c1.6,0,2.8,0.3,3.7,0.8c0.9,0.5,1.6,1.1,2.1,1.8c0.5,0.7,0.9,1.2,1.1,1.6h0.3v-11.9h3.7v32.1h-3.6v-3.7h-0.4 c-0.3,0.4-0.7,1-1.2,1.7s-1.2,1.3-2.1,1.8S1439.6,1143,1438.1,1143z M1438.6,1139.7c1.5,0,2.7-0.4,3.8-1.2c1-0.8,1.8-1.9,2.3-3.2 c0.5-1.4,0.8-3,0.8-4.8s-0.3-3.4-0.8-4.7c-0.5-1.4-1.3-2.4-2.3-3.2c-1-0.8-2.3-1.1-3.8-1.1c-1.6,0-2.9,0.4-3.9,1.2 c-1,0.8-1.8,1.9-2.3,3.2s-0.8,2.9-0.8,4.6s0.3,3.3,0.8,4.7c0.5,1.4,1.3,2.5,2.4,3.3C1435.8,1139.3,1437.1,1139.7,1438.6,1139.7z"></path><path class="st0" d="M1467,1143c-2.3,0-4.3-0.5-6-1.5s-3-2.5-3.9-4.3s-1.4-4-1.4-6.5s0.5-4.6,1.4-6.5s2.2-3.4,3.8-4.4 c1.6-1.1,3.5-1.6,5.7-1.6c1.3,0,2.5,0.2,3.7,0.6s2.3,1.1,3.3,2s1.8,2.2,2.4,3.7s0.9,3.4,0.9,5.7v1.6h-18.6v-3.2h14.8 c0-1.4-0.3-2.6-0.8-3.6s-1.3-1.9-2.3-2.5s-2.2-0.9-3.5-0.9c-1.5,0-2.7,0.4-3.8,1.1c-1.1,0.7-1.9,1.7-2.5,2.8 c-0.6,1.2-0.9,2.4-0.9,3.7v2.1c0,1.8,0.3,3.4,0.9,4.6s1.5,2.2,2.6,2.9c1.1,0.7,2.4,1,3.9,1c1,0,1.9-0.1,2.6-0.4 c0.8-0.3,1.5-0.7,2-1.3c0.6-0.6,1-1.3,1.3-2.1l3.6,1c-0.4,1.2-1,2.3-1.9,3.2s-2,1.6-3.3,2.1C1470.1,1142.7,1468.6,1143,1467,1143z "></path><path class="st0" d="M1486.7,1128v14.5h-3.7v-24.1h3.6v3.8h0.3c0.6-1.2,1.4-2.2,2.6-3c1.1-0.7,2.6-1.1,4.5-1.1 c1.6,0,3.1,0.3,4.3,1s2.2,1.7,2.9,3c0.7,1.3,1,3,1,5.1v15.3h-3.7v-15.1c0-1.9-0.5-3.4-1.5-4.4c-1-1.1-2.3-1.6-4-1.6 c-1.2,0-2.2,0.3-3.2,0.8c-0.9,0.5-1.7,1.3-2.2,2.2C1487,1125.4,1486.7,1126.6,1486.7,1128z"></path><path class="st0" d="M1519.8,1118.4v3.1h-12.5v-3.1H1519.8z M1510.9,1112.6h3.7v23c0,1,0.2,1.8,0.5,2.3s0.7,0.9,1.2,1 s1,0.3,1.5,0.3c0.4,0,0.7,0,1-0.1c0.3,0,0.5-0.1,0.6-0.1l0.8,3.3c-0.3,0.1-0.6,0.2-1.1,0.3c-0.4,0.1-1,0.1-1.7,0.1 c-1,0-2.1-0.2-3.1-0.7s-1.8-1.1-2.5-2.1c-0.7-0.9-1-2.1-1-3.5L1510.9,1112.6L1510.9,1112.6z"></path><path class="st0" d="M1292.8,1195.5l-8.8-32.1h4l6.7,26.2h0.3l6.8-26.2h4.4l6.8,26.2h0.3l6.7-26.2h4l-8.8,32.1h-4l-7.1-25.6h-0.3 l-7.1,25.6H1292.8z"></path><path class="st0" d="M1336.3,1196c-2.2,0-4.1-0.5-5.7-1.6s-2.9-2.5-3.8-4.3c-0.9-1.9-1.4-4-1.4-6.5s0.5-4.7,1.4-6.6 s2.2-3.3,3.8-4.4s3.5-1.6,5.7-1.6s4.1,0.5,5.7,1.6s2.9,2.5,3.8,4.4s1.4,4.1,1.4,6.6s-0.5,4.7-1.4,6.5c-0.9,1.9-2.2,3.3-3.8,4.3 S1338.5,1196,1336.3,1196z M1336.3,1192.7c1.7,0,3-0.4,4.1-1.3s1.9-2,2.4-3.3c0.5-1.4,0.8-2.9,0.8-4.5s-0.3-3.1-0.8-4.5 s-1.3-2.5-2.4-3.4s-2.4-1.3-4.1-1.3s-3,0.4-4.1,1.3s-1.9,2-2.4,3.4s-0.8,2.9-0.8,4.5s0.3,3.1,0.8,4.5s1.3,2.5,2.4,3.3 S1334.6,1192.7,1336.3,1192.7z"></path><path class="st0" d="M1353.3,1195.5v-24.1h3.6v3.6h0.3c0.4-1.2,1.2-2.2,2.4-2.9c1.1-0.7,2.4-1.1,3.9-1.1c0.3,0,0.6,0,1,0 s0.7,0,0.9,0v3.8c-0.1,0-0.4-0.1-0.9-0.1s-0.9-0.1-1.4-0.1c-1.2,0-2.2,0.2-3.1,0.7s-1.6,1.2-2.2,2c-0.5,0.9-0.8,1.8-0.8,2.9v15.2 L1353.3,1195.5L1353.3,1195.5z"></path><path class="st0" d="M1370.2,1195.5v-32.1h3.7v32.1H1370.2z M1373.6,1186.7l-0.1-4.6h0.8l10.5-10.7h4.6l-11.2,11.4h-0.3 L1373.6,1186.7z M1385.5,1195.5l-9.4-11.9l2.6-2.6l11.5,14.5H1385.5z"></path><path class="st0" d="M1398.3,1163.4v32.1h-3.7v-32.1H1398.3z"></path><path class="st0" d="M1415.3,1196c-2.2,0-4.1-0.5-5.7-1.6s-2.9-2.5-3.8-4.3c-0.9-1.9-1.4-4-1.4-6.5s0.5-4.7,1.4-6.6 s2.2-3.3,3.8-4.4s3.5-1.6,5.7-1.6s4.1,0.5,5.7,1.6s2.9,2.5,3.8,4.4s1.4,4.1,1.4,6.6s-0.5,4.7-1.4,6.5c-0.9,1.9-2.2,3.3-3.8,4.3 S1417.5,1196,1415.3,1196z M1415.3,1192.7c1.7,0,3-0.4,4.1-1.3s1.9-2,2.4-3.3c0.5-1.4,0.8-2.9,0.8-4.5s-0.3-3.1-0.8-4.5 s-1.3-2.5-2.4-3.4s-2.4-1.3-4.1-1.3s-3,0.4-4.1,1.3s-1.9,2-2.4,3.4s-0.8,2.9-0.8,4.5s0.3,3.1,0.8,4.5s1.3,2.5,2.4,3.3 S1413.7,1192.7,1415.3,1192.7z"></path><path class="st0" d="M1439.4,1196c-1.5,0-2.9-0.3-4.2-0.9s-2.2-1.4-3-2.5c-0.7-1.1-1.1-2.4-1.1-4c0-1.4,0.3-2.5,0.8-3.4 s1.3-1.5,2.2-2s1.9-0.9,3-1.1s2.2-0.4,3.3-0.6c1.5-0.2,2.7-0.3,3.6-0.4s1.6-0.3,2-0.5s0.6-0.7,0.6-1.3v-0.1c0-1.5-0.4-2.8-1.3-3.6 c-0.8-0.9-2.1-1.3-3.8-1.3c-1.8,0-3.2,0.4-4.2,1.2c-1,0.8-1.7,1.6-2.1,2.5l-3.5-1.3c0.6-1.5,1.5-2.6,2.5-3.4 c1.1-0.8,2.2-1.4,3.4-1.7c1.2-0.3,2.5-0.5,3.7-0.5c0.8,0,1.7,0.1,2.7,0.3c1,0.2,2,0.6,2.9,1.1s1.7,1.4,2.4,2.6 c0.6,1.1,0.9,2.7,0.9,4.6v15.9h-3.7v-3.3h-0.2c-0.3,0.5-0.7,1.1-1.3,1.7s-1.4,1.1-2.3,1.5S1440.8,1196,1439.4,1196z M1440,1192.7 c1.5,0,2.7-0.3,3.7-0.9s1.8-1.3,2.3-2.2c0.5-0.9,0.8-1.9,0.8-2.9v-3.4c-0.2,0.2-0.5,0.4-1,0.5c-0.5,0.2-1.1,0.3-1.8,0.4 c-0.7,0.1-1.3,0.2-2,0.3c-0.6,0.1-1.2,0.1-1.6,0.2c-1,0.1-1.9,0.3-2.7,0.6c-0.8,0.3-1.5,0.7-2,1.2s-0.8,1.3-0.8,2.2 c0,1.3,0.5,2.3,1.4,2.9S1438.5,1192.7,1440,1192.7z"></path><path class="st0" d="M1466.8,1196c-2,0-3.8-0.5-5.3-1.5s-2.7-2.5-3.6-4.3s-1.3-4.1-1.3-6.6s0.4-4.7,1.3-6.6s2.1-3.3,3.6-4.3 s3.3-1.5,5.4-1.5c1.6,0,2.8,0.3,3.7,0.8c0.9,0.5,1.6,1.1,2.1,1.8c0.5,0.7,0.9,1.2,1.1,1.6h0.3v-11.9h3.7v32.1h-3.6v-3.7h-0.4 c-0.3,0.4-0.7,1-1.2,1.7s-1.2,1.3-2.1,1.8S1468.3,1196,1466.8,1196z M1467.3,1192.7c1.5,0,2.7-0.4,3.8-1.2c1-0.8,1.8-1.9,2.3-3.2 c0.5-1.4,0.8-3,0.8-4.8s-0.3-3.4-0.8-4.7c-0.5-1.4-1.3-2.4-2.3-3.2c-1-0.8-2.3-1.1-3.8-1.1c-1.6,0-2.9,0.4-3.9,1.2 c-1,0.8-1.8,1.9-2.3,3.2s-0.8,2.9-0.8,4.6s0.3,3.3,0.8,4.7c0.5,1.4,1.3,2.5,2.4,3.3C1464.4,1192.3,1465.7,1192.7,1467.3,1192.7z"></path><path class="st0" d="M1502.6,1176.8l-3.3,0.9c-0.2-0.6-0.5-1.1-0.9-1.6s-0.9-1-1.6-1.3s-1.6-0.5-2.7-0.5c-1.5,0-2.7,0.3-3.7,1 s-1.5,1.5-1.5,2.6c0,0.9,0.3,1.6,1,2.2c0.7,0.5,1.7,1,3.1,1.3l3.6,0.9c2.2,0.5,3.8,1.3,4.8,2.4s1.6,2.4,1.6,4.1 c0,1.4-0.4,2.6-1.2,3.7s-1.9,1.9-3.3,2.6c-1.4,0.6-3.1,0.9-4.9,0.9c-2.5,0-4.5-0.5-6.1-1.6s-2.6-2.6-3.1-4.7l3.5-0.9 c0.3,1.3,1,2.3,1.9,2.9s2.2,1,3.7,1c1.7,0,3.1-0.4,4.1-1.1s1.5-1.6,1.5-2.7c0-0.8-0.3-1.5-0.9-2.1s-1.5-1-2.7-1.3l-4-0.9 c-2.2-0.5-3.8-1.3-4.9-2.4c-1-1.1-1.5-2.5-1.5-4.1c0-1.4,0.4-2.6,1.2-3.6c0.8-1,1.8-1.9,3.2-2.5s2.8-0.9,4.5-0.9 c2.4,0,4.3,0.5,5.6,1.6C1501,1173.7,1502,1175.1,1502.6,1176.8z"></path></g><g><path class="st0" d="M455.8,1110.4v32.1h-3.9v-32.1H455.8z"></path><path class="st0" d="M467.2,1128v14.5h-3.7v-24.1h3.6v3.8h0.3c0.6-1.2,1.4-2.2,2.6-3c1.1-0.7,2.6-1.1,4.5-1.1c1.6,0,3.1,0.3,4.3,1 s2.2,1.7,2.9,3s1,3,1,5.1v15.3H479v-15.1c0-1.9-0.5-3.4-1.5-4.4c-1-1.1-2.3-1.6-4-1.6c-1.2,0-2.2,0.3-3.2,0.8 c-0.9,0.5-1.7,1.3-2.2,2.2C467.5,1125.4,467.2,1126.6,467.2,1128z"></path><path class="st0" d="M498.9,1143c-2,0-3.8-0.5-5.3-1.5s-2.7-2.5-3.6-4.3s-1.3-4.1-1.3-6.6s0.4-4.7,1.3-6.6s2.1-3.3,3.6-4.3 s3.3-1.5,5.4-1.5c1.6,0,2.8,0.3,3.7,0.8s1.6,1.1,2.1,1.8c0.5,0.7,0.9,1.2,1.1,1.6h0.3v-11.9h3.7v32.1h-3.6v-3.7h-0.4 c-0.3,0.4-0.7,1-1.2,1.7s-1.2,1.3-2.1,1.8S500.4,1143,498.9,1143z M499.4,1139.7c1.5,0,2.7-0.4,3.8-1.2c1-0.8,1.8-1.9,2.3-3.2 c0.5-1.4,0.8-3,0.8-4.8s-0.3-3.4-0.8-4.7c-0.5-1.4-1.3-2.4-2.3-3.2c-1-0.8-2.3-1.1-3.8-1.1c-1.6,0-2.9,0.4-3.9,1.2 c-1,0.8-1.8,1.9-2.3,3.2s-0.8,2.9-0.8,4.6s0.3,3.3,0.8,4.7c0.5,1.4,1.3,2.5,2.4,3.3C496.6,1139.3,497.9,1139.7,499.4,1139.7z"></path><path class="st0" d="M527.8,1143c-2.3,0-4.3-0.5-6-1.5s-3-2.5-3.9-4.3s-1.4-4-1.4-6.5s0.5-4.6,1.4-6.5s2.2-3.4,3.8-4.4 c1.6-1.1,3.5-1.6,5.7-1.6c1.3,0,2.5,0.2,3.7,0.6s2.3,1.1,3.3,2s1.8,2.2,2.4,3.7c0.6,1.5,0.9,3.4,0.9,5.7v1.6h-18.5v-3.2H534 c0-1.4-0.3-2.6-0.8-3.6s-1.3-1.9-2.3-2.5s-2.2-0.9-3.5-0.9c-1.5,0-2.7,0.4-3.8,1.1s-1.9,1.7-2.5,2.8c-0.6,1.2-0.9,2.4-0.9,3.7v2.1 c0,1.8,0.3,3.4,0.9,4.6s1.5,2.2,2.6,2.9c1.1,0.7,2.4,1,3.9,1c1,0,1.9-0.1,2.6-0.4c0.8-0.3,1.5-0.7,2-1.3c0.6-0.6,1-1.3,1.3-2.1 l3.6,1c-0.4,1.2-1,2.3-1.9,3.2s-2,1.6-3.3,2.1C530.9,1142.7,529.4,1143,527.8,1143z"></path><path class="st0" d="M543.8,1151.5v-33.1h3.6v3.8h0.4c0.3-0.4,0.7-1,1.1-1.6c0.5-0.7,1.2-1.2,2.1-1.8c0.9-0.5,2.2-0.8,3.7-0.8 c2,0,3.8,0.5,5.4,1.5c1.5,1,2.8,2.5,3.6,4.3c0.9,1.9,1.3,4.1,1.3,6.6c0,2.6-0.4,4.8-1.3,6.6s-2.1,3.3-3.6,4.3s-3.3,1.5-5.3,1.5 c-1.5,0-2.8-0.3-3.7-0.8s-1.6-1.1-2.1-1.8c-0.5-0.7-0.9-1.2-1.2-1.7h-0.3v12.7h-3.7V1151.5z M547.5,1130.4c0,1.8,0.3,3.4,0.8,4.8 s1.3,2.5,2.3,3.2c1,0.8,2.3,1.2,3.8,1.2s2.8-0.4,3.9-1.2c1-0.8,1.8-1.9,2.4-3.3c0.5-1.4,0.8-3,0.8-4.7s-0.3-3.2-0.8-4.6 s-1.3-2.4-2.3-3.2c-1-0.8-2.3-1.2-3.9-1.2c-1.5,0-2.8,0.4-3.8,1.1s-1.8,1.8-2.3,3.2C547.7,1127.1,547.5,1128.7,547.5,1130.4z"></path><path class="st0" d="M581.3,1143c-2.3,0-4.3-0.5-6-1.5s-3-2.5-3.9-4.3s-1.4-4-1.4-6.5s0.5-4.6,1.4-6.5s2.2-3.4,3.8-4.4 c1.6-1.1,3.5-1.6,5.7-1.6c1.3,0,2.5,0.2,3.7,0.6s2.3,1.1,3.3,2s1.8,2.2,2.4,3.7c0.6,1.5,0.9,3.4,0.9,5.7v1.6h-18.6v-3.2h14.8 c0-1.4-0.3-2.6-0.8-3.6s-1.3-1.9-2.3-2.5s-2.2-0.9-3.5-0.9c-1.5,0-2.7,0.4-3.8,1.1s-1.9,1.7-2.5,2.8c-0.6,1.2-0.9,2.4-0.9,3.7v2.1 c0,1.8,0.3,3.4,0.9,4.6s1.5,2.2,2.6,2.9c1.1,0.7,2.4,1,3.9,1c1,0,1.9-0.1,2.6-0.4c0.8-0.3,1.5-0.7,2-1.3c0.6-0.6,1-1.3,1.3-2.1 l3.6,1c-0.4,1.2-1,2.3-1.9,3.2s-2,1.6-3.3,2.1C584.4,1142.7,582.9,1143,581.3,1143z"></path><path class="st0" d="M601,1128v14.5h-3.7v-24.1h3.6v3.8h0.3c0.6-1.2,1.4-2.2,2.6-3c1.1-0.7,2.6-1.1,4.5-1.1c1.6,0,3.1,0.3,4.3,1 s2.2,1.7,2.9,3s1,3,1,5.1v15.3h-3.7v-15.1c0-1.9-0.5-3.4-1.5-4.4c-1-1.1-2.3-1.6-4-1.6c-1.2,0-2.2,0.3-3.2,0.8 c-0.9,0.5-1.7,1.3-2.2,2.2C601.3,1125.4,601,1126.6,601,1128z"></path><path class="st0" d="M632.7,1143c-2,0-3.8-0.5-5.3-1.5s-2.7-2.5-3.6-4.3s-1.3-4.1-1.3-6.6s0.4-4.7,1.3-6.6 c0.9-1.9,2.1-3.3,3.6-4.3s3.3-1.5,5.4-1.5c1.6,0,2.8,0.3,3.7,0.8s1.6,1.1,2.1,1.8c0.5,0.7,0.9,1.2,1.1,1.6h0.3v-11.9h3.7v32.1 h-3.5v-3.7h-0.4c-0.3,0.4-0.7,1-1.2,1.7s-1.2,1.3-2.1,1.8S634.3,1143,632.7,1143z M633.2,1139.7c1.5,0,2.7-0.4,3.8-1.2 c1-0.8,1.8-1.9,2.3-3.2c0.5-1.4,0.8-3,0.8-4.8s-0.3-3.4-0.8-4.7c-0.5-1.4-1.3-2.4-2.3-3.2c-1-0.8-2.3-1.1-3.8-1.1 c-1.6,0-2.9,0.4-3.9,1.2c-1,0.8-1.8,1.9-2.3,3.2s-0.8,2.9-0.8,4.6s0.3,3.3,0.8,4.7c0.5,1.4,1.3,2.5,2.4,3.3 C630.4,1139.3,631.7,1139.7,633.2,1139.7z"></path><path class="st0" d="M661.6,1143c-2.3,0-4.3-0.5-6-1.5s-3-2.5-3.9-4.3s-1.4-4-1.4-6.5s0.5-4.6,1.4-6.5s2.2-3.4,3.8-4.4 c1.6-1.1,3.5-1.6,5.7-1.6c1.3,0,2.5,0.2,3.7,0.6s2.3,1.1,3.3,2s1.8,2.2,2.4,3.7c0.6,1.5,0.9,3.4,0.9,5.7v1.6h-18.6v-3.2h14.8 c0-1.4-0.3-2.6-0.8-3.6s-1.3-1.9-2.3-2.5s-2.2-0.9-3.5-0.9c-1.5,0-2.7,0.4-3.8,1.1s-1.9,1.7-2.5,2.8c-0.6,1.2-0.9,2.4-0.9,3.7v2.1 c0,1.8,0.3,3.4,0.9,4.6s1.5,2.2,2.6,2.9c1.1,0.7,2.4,1,3.9,1c1,0,1.9-0.1,2.6-0.4c0.8-0.3,1.5-0.7,2-1.3c0.6-0.6,1-1.3,1.3-2.1 l3.6,1c-0.4,1.2-1,2.3-1.9,3.2s-2,1.6-3.3,2.1C664.7,1142.7,663.2,1143,661.6,1143z"></path><path class="st0" d="M681.3,1128v14.5h-3.7v-24.1h3.6v3.8h0.3c0.6-1.2,1.4-2.2,2.6-3c1.1-0.7,2.6-1.1,4.5-1.1c1.6,0,3.1,0.3,4.3,1 s2.2,1.7,2.9,3s1,3,1,5.1v15.3h-3.7v-15.1c0-1.9-0.5-3.4-1.5-4.4c-1-1.1-2.3-1.6-4-1.6c-1.2,0-2.2,0.3-3.2,0.8 c-0.9,0.5-1.7,1.3-2.2,2.2C681.6,1125.4,681.3,1126.6,681.3,1128z"></path><path class="st0" d="M714.4,1118.4v3.1h-12.5v-3.1H714.4z M705.5,1112.6h3.7v23c0,1,0.2,1.8,0.5,2.3s0.7,0.9,1.2,1s1,0.3,1.5,0.3 c0.4,0,0.7,0,1-0.1c0.3,0,0.5-0.1,0.6-0.1l0.8,3.3c-0.3,0.1-0.6,0.2-1.1,0.3c-0.4,0.1-1,0.1-1.7,0.1c-1,0-2.1-0.2-3.1-0.7 s-1.8-1.1-2.5-2.1c-0.7-0.9-1-2.1-1-3.5L705.5,1112.6L705.5,1112.6z"></path><path class="st0" d="M487.4,1195.5l-8.8-32.1h4l6.7,26.2h0.3l6.8-26.2h4.4l6.8,26.2h0.3l6.7-26.2h4l-8.8,32.1h-4l-7.1-25.6h-0.3 l-7.1,25.6H487.4z"></path><path class="st0" d="M530.9,1196c-2.2,0-4.1-0.5-5.7-1.6s-2.9-2.5-3.8-4.3c-0.9-1.9-1.4-4-1.4-6.5s0.5-4.7,1.4-6.6 s2.2-3.3,3.8-4.4s3.5-1.6,5.7-1.6s4.1,0.5,5.7,1.6s2.9,2.5,3.8,4.4c0.9,1.9,1.4,4.1,1.4,6.6s-0.5,4.7-1.4,6.5 c-0.9,1.9-2.2,3.3-3.8,4.3S533.1,1196,530.9,1196z M530.9,1192.7c1.7,0,3-0.4,4.1-1.3s1.9-2,2.4-3.3c0.5-1.4,0.8-2.9,0.8-4.5 s-0.3-3.1-0.8-4.5s-1.3-2.5-2.4-3.4s-2.4-1.3-4.1-1.3c-1.7,0-3,0.4-4.1,1.3s-1.9,2-2.4,3.4s-0.8,2.9-0.8,4.5s0.3,3.1,0.8,4.5 s1.3,2.5,2.4,3.3C527.9,1192.2,529.2,1192.7,530.9,1192.7z"></path><path class="st0" d="M547.9,1195.5v-24.1h3.6v3.6h0.3c0.4-1.2,1.2-2.2,2.4-2.9c1.1-0.7,2.4-1.1,3.9-1.1c0.3,0,0.6,0,1,0 s0.7,0,0.9,0v3.8c-0.1,0-0.4-0.1-0.9-0.1s-0.9-0.1-1.4-0.1c-1.2,0-2.2,0.2-3.1,0.7c-0.9,0.5-1.6,1.2-2.2,2 c-0.5,0.9-0.8,1.8-0.8,2.9v15.2L547.9,1195.5L547.9,1195.5z"></path><path class="st0" d="M564.8,1195.5v-32.1h3.7v32.1H564.8z M568.2,1186.7l-0.1-4.6h0.8l10.5-10.7h4.6l-11.2,11.4h-0.3L568.2,1186.7 z M580.1,1195.5l-9.4-11.9l2.6-2.6l11.5,14.5H580.1z"></path><path class="st0" d="M592.9,1163.4v32.1h-3.7v-32.1H592.9z"></path><path class="st0" d="M609.9,1196c-2.2,0-4.1-0.5-5.7-1.6s-2.9-2.5-3.8-4.3c-0.9-1.9-1.4-4-1.4-6.5s0.5-4.7,1.4-6.6 s2.2-3.3,3.8-4.4s3.5-1.6,5.7-1.6s4.1,0.5,5.7,1.6s2.9,2.5,3.8,4.4c0.9,1.9,1.4,4.1,1.4,6.6s-0.5,4.7-1.4,6.5 c-0.9,1.9-2.2,3.3-3.8,4.3S612.1,1196,609.9,1196z M609.9,1192.7c1.7,0,3-0.4,4.1-1.3s1.9-2,2.4-3.3c0.5-1.4,0.8-2.9,0.8-4.5 s-0.3-3.1-0.8-4.5s-1.3-2.5-2.4-3.4s-2.4-1.3-4.1-1.3c-1.7,0-3,0.4-4.1,1.3s-1.9,2-2.4,3.4s-0.8,2.9-0.8,4.5s0.3,3.1,0.8,4.5 s1.3,2.5,2.4,3.3C606.9,1192.2,608.3,1192.7,609.9,1192.7z"></path><path class="st0" d="M634,1196c-1.5,0-2.9-0.3-4.2-0.9s-2.2-1.4-3-2.5c-0.7-1.1-1.1-2.4-1.1-4c0-1.4,0.3-2.5,0.8-3.4 s1.3-1.5,2.2-2s1.9-0.9,3-1.1s2.2-0.4,3.3-0.6c1.5-0.2,2.7-0.3,3.6-0.4c0.9-0.1,1.6-0.3,2-0.5s0.6-0.7,0.6-1.3v-0.1 c0-1.5-0.4-2.8-1.3-3.6c-0.8-0.9-2.1-1.3-3.8-1.3c-1.8,0-3.2,0.4-4.2,1.2c-1,0.8-1.7,1.6-2.1,2.5l-3.5-1.3 c0.6-1.5,1.5-2.6,2.5-3.4c1.1-0.8,2.2-1.4,3.4-1.7c1.2-0.3,2.5-0.5,3.7-0.5c0.8,0,1.7,0.1,2.7,0.3c1,0.2,2,0.6,2.9,1.1 s1.7,1.4,2.4,2.6c0.6,1.1,0.9,2.7,0.9,4.6v15.9h-3.7v-3.3h0.1c-0.3,0.5-0.7,1.1-1.3,1.7s-1.4,1.1-2.3,1.5S635.4,1196,634,1196z M634.6,1192.7c1.5,0,2.7-0.3,3.7-0.9s1.8-1.3,2.3-2.2c0.5-0.9,0.8-1.9,0.8-2.9v-3.4c-0.2,0.2-0.5,0.4-1,0.5 c-0.5,0.2-1.1,0.3-1.8,0.4s-1.3,0.2-2,0.3c-0.6,0.1-1.2,0.1-1.6,0.2c-1,0.1-1.9,0.3-2.7,0.6c-0.8,0.3-1.5,0.7-2,1.2 s-0.8,1.3-0.8,2.2c0,1.3,0.5,2.3,1.4,2.9S633.1,1192.7,634.6,1192.7z"></path><path class="st0" d="M661.4,1196c-2,0-3.8-0.5-5.3-1.5s-2.7-2.5-3.6-4.3s-1.3-4.1-1.3-6.6s0.4-4.7,1.3-6.6 c0.9-1.9,2.1-3.3,3.6-4.3s3.3-1.5,5.4-1.5c1.6,0,2.8,0.3,3.7,0.8s1.6,1.1,2.1,1.8c0.5,0.7,0.9,1.2,1.1,1.6h0.3v-11.9h3.7v32.1 h-3.6v-3.7h-0.4c-0.3,0.4-0.7,1-1.2,1.7s-1.2,1.3-2.1,1.8S662.9,1196,661.4,1196z M661.9,1192.7c1.5,0,2.7-0.4,3.8-1.2 c1-0.8,1.8-1.9,2.3-3.2c0.5-1.4,0.8-3,0.8-4.8s-0.3-3.4-0.8-4.7c-0.5-1.4-1.3-2.4-2.3-3.2c-1-0.8-2.3-1.1-3.8-1.1 c-1.6,0-2.9,0.4-3.9,1.2c-1,0.8-1.8,1.9-2.3,3.2s-0.8,2.9-0.8,4.6s0.3,3.3,0.8,4.7c0.5,1.4,1.3,2.5,2.4,3.3 C659,1192.3,660.3,1192.7,661.9,1192.7z"></path><path class="st0" d="M697.2,1176.8l-3.3,0.9c-0.2-0.6-0.5-1.1-0.9-1.6s-0.9-1-1.6-1.3c-0.7-0.3-1.6-0.5-2.7-0.5 c-1.5,0-2.7,0.3-3.7,1s-1.5,1.5-1.5,2.6c0,0.9,0.3,1.6,1,2.2c0.7,0.5,1.7,1,3.1,1.3l3.6,0.9c2.2,0.5,3.8,1.3,4.8,2.4 s1.6,2.4,1.6,4.1c0,1.4-0.4,2.6-1.2,3.7s-1.9,1.9-3.3,2.6c-1.4,0.6-3.1,0.9-4.9,0.9c-2.5,0-4.5-0.5-6.1-1.6s-2.6-2.6-3.1-4.7 l3.5-0.9c0.3,1.3,1,2.3,1.9,2.9s2.2,1,3.7,1c1.7,0,3.1-0.4,4.1-1.1s1.5-1.6,1.5-2.7c0-0.8-0.3-1.5-0.9-2.1c-0.6-0.6-1.5-1-2.7-1.3 l-4-0.9c-2.2-0.5-3.8-1.3-4.9-2.4c-1-1.1-1.5-2.5-1.5-4.1c0-1.4,0.4-2.6,1.2-3.6s1.8-1.9,3.2-2.5s2.8-0.9,4.5-0.9 c2.4,0,4.3,0.5,5.6,1.6C695.7,1173.7,696.6,1175.1,697.2,1176.8z"></path></g><g><path class="st0" d="M3109.3,1518.2V1475h16.2c3.3,0,6.1,0.6,8.4,1.9c2.3,1.2,4,2.9,5.1,5.1c1.2,2.2,1.7,4.6,1.7,7.4 s-0.6,5.2-1.8,7.4c-1.2,2.2-2.9,3.8-5.2,5.1s-5.1,1.8-8.4,1.8h-10.7v-6.4h9.7c1.9,0,3.5-0.3,4.8-1c1.2-0.7,2.2-1.6,2.8-2.8 c0.6-1.2,0.9-2.5,0.9-4.1s-0.3-2.9-0.9-4.1c-0.6-1.2-1.5-2.1-2.8-2.7c-1.2-0.7-2.8-1-4.8-1h-7.2v36.7h-7.8V1518.2z"></path><path class="st0" d="M3167.8,1504.6v-18.8h7.6v32.4h-7.4v-5.8h-0.3c-0.7,1.8-1.9,3.3-3.6,4.5c-1.7,1.2-3.7,1.7-6.1,1.7 c-2.1,0-4-0.5-5.6-1.4s-2.9-2.3-3.8-4.2c-0.9-1.8-1.4-4-1.4-6.6v-20.6h7.6v19.4c0,2.1,0.6,3.7,1.7,4.9s2.6,1.8,4.4,1.8 c1.1,0,2.2-0.3,3.3-0.8s1.9-1.4,2.6-2.5C3167.5,1507.6,3167.8,1506.3,3167.8,1504.6z"></path><path class="st0" d="M3183.6,1518.2V1475h7.6v16.2h0.3c0.4-0.8,0.9-1.6,1.7-2.5c0.7-0.9,1.7-1.7,2.9-2.3c1.2-0.6,2.8-1,4.7-1 c2.5,0,4.8,0.6,6.8,1.9s3.6,3.2,4.8,5.6c1.2,2.5,1.8,5.5,1.8,9.1s-0.6,6.6-1.8,9.1s-2.8,4.4-4.8,5.7c-2,1.3-4.3,2-6.8,2 c-1.9,0-3.4-0.3-4.6-0.9c-1.2-0.6-2.2-1.4-2.9-2.2s-1.3-1.7-1.7-2.5h-0.4v5.1L3183.6,1518.2L3183.6,1518.2z M3191.1,1502 c0,2.1,0.3,3.9,0.9,5.5c0.6,1.6,1.5,2.8,2.6,3.7s2.5,1.3,4.1,1.3c1.7,0,3.1-0.5,4.2-1.4c1.1-0.9,2-2.2,2.6-3.7s0.9-3.4,0.9-5.4 s-0.3-3.8-0.9-5.4c-0.6-1.6-1.4-2.8-2.6-3.7c-1.1-0.9-2.6-1.3-4.3-1.3c-1.6,0-3,0.4-4.2,1.3c-1.1,0.9-2,2.1-2.6,3.6 C3191.4,1498.1,3191.1,1500,3191.1,1502z"></path><path class="st0" d="M3228.4,1475v43.2h-7.6V1475H3228.4z"></path><path class="st0" d="M3240.1,1481.2c-1.2,0-2.3-0.4-3.1-1.2c-0.9-0.8-1.3-1.8-1.3-2.9c0-1.2,0.4-2.1,1.3-2.9 c0.9-0.8,1.9-1.2,3.1-1.2c1.2,0,2.2,0.4,3.1,1.2s1.3,1.8,1.3,2.9s-0.4,2.1-1.3,2.9S3241.3,1481.2,3240.1,1481.2z M3236.2,1518.2 v-32.4h7.6v32.4H3236.2z"></path><path class="st0" d="M3265.8,1518.9c-3.2,0-6-0.7-8.3-2.1s-4.1-3.4-5.3-5.9s-1.9-5.4-1.9-8.7c0-3.3,0.6-6.2,1.9-8.7 c1.3-2.5,3.1-4.5,5.4-5.9s5.1-2.1,8.2-2.1c2.6,0,5,0.5,7,1.4c2,1,3.7,2.3,4.9,4.1c1.2,1.8,1.9,3.8,2.1,6.1h-7.3 c-0.3-1.6-1-2.9-2.1-3.9s-2.6-1.6-4.4-1.6c-1.6,0-2.9,0.4-4.1,1.3c-1.2,0.8-2.1,2-2.8,3.6s-1,3.4-1,5.6s0.3,4.1,1,5.7 c0.6,1.6,1.6,2.8,2.7,3.6c1.2,0.9,2.6,1.3,4.1,1.3c1.1,0,2.1-0.2,3-0.6s1.6-1.1,2.2-1.9c0.6-0.8,1-1.8,1.2-3h7.3 c-0.2,2.3-0.9,4.3-2,6.1c-1.2,1.8-2.8,3.1-4.8,4.1C3270.9,1518.4,3268.6,1518.9,3265.8,1518.9z"></path><path class="st0" d="M3338.1,1489.6h-7.9c-0.2-1.3-0.6-2.4-1.2-3.4c-0.6-1-1.4-1.9-2.3-2.6c-0.9-0.7-1.9-1.2-3.1-1.6 c-1.1-0.4-2.4-0.5-3.7-0.5c-2.3,0-4.4,0.6-6.2,1.8c-1.8,1.2-3.2,2.9-4.3,5.1c-1,2.3-1.5,5-1.5,8.3s0.5,6.1,1.6,8.3s2.5,4,4.3,5.1 s3.9,1.7,6.2,1.7c1.3,0,2.5-0.2,3.6-0.5s2.2-0.9,3.1-1.5c0.9-0.7,1.7-1.5,2.3-2.5s1.1-2.1,1.3-3.4h7.9c-0.3,2.1-0.9,4-1.9,5.8 s-2.3,3.4-3.8,4.8c-1.6,1.4-3.4,2.4-5.5,3.2s-4.5,1.1-7,1.1c-3.8,0-7.2-0.9-10.2-2.6c-3-1.8-5.3-4.3-7-7.6 c-1.7-3.3-2.6-7.3-2.6-11.9c0-4.7,0.9-8.6,2.6-12c1.7-3.3,4.1-5.8,7.1-7.6c3-1.8,6.4-2.6,10.1-2.6c2.4,0,4.6,0.3,6.7,1 c2.1,0.7,3.9,1.7,5.5,3s2.9,2.9,4,4.8C3337.1,1485.1,3337.7,1487.2,3338.1,1489.6z"></path><path class="st0" d="M3352.6,1475v43.2h-7.6V1475H3352.6z"></path><path class="st0" d="M3374.5,1518.9c-3.2,0-5.9-0.7-8.2-2.1s-4.1-3.3-5.4-5.8c-1.3-2.5-1.9-5.4-1.9-8.8c0-3.3,0.6-6.3,1.9-8.8 c1.3-2.5,3.1-4.5,5.4-5.9c2.3-1.4,5.1-2.1,8.2-2.1s5.9,0.7,8.2,2.1s4.1,3.3,5.4,5.9c1.3,2.5,1.9,5.4,1.9,8.8 c0,3.3-0.6,6.3-1.9,8.8c-1.3,2.5-3.1,4.5-5.4,5.8S3377.7,1518.9,3374.5,1518.9z M3374.6,1512.8c1.7,0,3.1-0.5,4.3-1.4 s2-2.2,2.6-3.8c0.6-1.6,0.9-3.4,0.9-5.4s-0.3-3.8-0.9-5.4c-0.6-1.6-1.4-2.9-2.6-3.8c-1.2-1-2.6-1.4-4.3-1.4 c-1.8,0-3.2,0.5-4.4,1.4c-1.2,1-2,2.2-2.6,3.8c-0.6,1.6-0.9,3.4-0.9,5.4s0.3,3.8,0.9,5.4c0.6,1.6,1.4,2.9,2.6,3.8 S3372.8,1512.8,3374.6,1512.8z"></path><path class="st0" d="M3417.2,1504.6v-18.8h7.6v32.4h-7.4v-5.8h-0.3c-0.7,1.8-1.9,3.3-3.6,4.5c-1.7,1.2-3.7,1.7-6.1,1.7 c-2.1,0-4-0.5-5.6-1.4s-2.9-2.3-3.8-4.2c-0.9-1.8-1.4-4-1.4-6.6v-20.6h7.6v19.4c0,2.1,0.6,3.7,1.7,4.9s2.6,1.8,4.4,1.8 c1.1,0,2.2-0.3,3.3-0.8s1.9-1.4,2.6-2.5C3416.8,1507.6,3417.2,1506.3,3417.2,1504.6z"></path><path class="st0" d="M3444.7,1518.8c-2.5,0-4.8-0.7-6.8-2s-3.6-3.2-4.8-5.7s-1.8-5.5-1.8-9.1s0.6-6.6,1.8-9.1s2.8-4.4,4.8-5.6 c2-1.3,4.3-1.9,6.8-1.9c1.9,0,3.5,0.3,4.7,1c1.2,0.6,2.2,1.4,2.9,2.3s1.3,1.7,1.7,2.5h0.3V1475h7.7v43.2h-7.5v-5.1h-0.5 c-0.4,0.8-1,1.6-1.7,2.5s-1.7,1.6-3,2.2C3448.1,1518.5,3446.5,1518.8,3444.7,1518.8z M3446.8,1512.6c1.6,0,3-0.4,4.1-1.3 s2-2.1,2.6-3.7s0.9-3.4,0.9-5.5s-0.3-3.9-0.9-5.5c-0.6-1.5-1.4-2.7-2.6-3.6c-1.1-0.9-2.5-1.3-4.2-1.3s-3.1,0.4-4.3,1.3 c-1.1,0.9-2,2.1-2.6,3.7s-0.9,3.3-0.9,5.4c0,2,0.3,3.8,0.9,5.4c0.6,1.6,1.4,2.8,2.6,3.7 C3443.7,1512.1,3445.1,1512.6,3446.8,1512.6z"></path></g><g><g><line class="st1" x1="2443.8" y1="976.4" x2="2604.8" y2="733.7"></line><g><polygon class="st2" points="2612.7,758.8 2607.7,759.6 2603.7,735.3 2579.7,741.1 2578.6,736.2 2607.8,729.2 "></polygon></g></g></g><g><g><line class="st1" x1="3117.8" y1="1002.3" x2="2941.3" y2="733.7"></line><g><polygon class="st2" points="2967.5,736.3 2966.3,741.2 2942.4,735.3 2938.3,759.6 2933.3,758.8 2938.4,729.2 "></polygon></g></g></g><g><g><line class="st1" x1="971.4" y1="567.2" x2="971.4" y2="730.2"></line><g><polygon class="st2" points="955.1,580.4 958,583.1 971.4,568.7 984.8,583.1 987.8,580.4 971.4,562.8 "></polygon></g><g><polygon class="st2" points="955.1,716.9 958,714.2 971.4,728.6 984.8,714.2 987.8,716.9 971.4,734.5 "></polygon></g></g></g><g><g><line class="st1" x1="1150.7" y1="1096.8" x2="1252.2" y2="1296.4"></line><g><polygon class="st2" points="1142.1,1116.1 1145.9,1117.2 1151.3,1098.2 1169.9,1105 1171.2,1101.2 1148.7,1093 "></polygon></g><g><polygon class="st2" points="1231.6,1292 1233,1288.3 1251.5,1295.1 1256.9,1276.1 1260.8,1277.2 1254.2,1300.3 "></polygon></g></g></g><g><g><line class="st1" x1="693.4" y1="1292.4" x2="804.5" y2="1101.3"></line><g><polygon class="st2" points="714.2,1289.1 713.1,1285.3 694.2,1291 689.9,1271.8 686,1272.7 691.3,1296.1 "></polygon></g><g><polygon class="st2" points="812,1121 808.1,1121.8 803.8,1102.6 784.9,1108.3 783.7,1104.5 806.7,1097.5 "></polygon></g></g></g><g><g><line class="st1" x1="2970.6" y1="1170" x2="2622.9" y2="1170"></line><g><polygon class="st2" points="2639.4,1149.5 2642.8,1153.2 2624.8,1170 2642.8,1186.7 2639.4,1190.4 2617.4,1170 "></polygon></g></g></g><g><g><line class="st1" x1="2967.5" y1="1225.8" x2="2619.8" y2="1225.8"></line><g><polygon class="st2" points="2950.9,1205.4 2947.5,1209 2965.6,1225.8 2947.5,1242.6 2950.9,1246.3 2972.9,1225.8 "></polygon></g></g></g><g><rect x="872" y="796.9" class="st3" width="42.4" height="42.4"></rect><rect x="872" y="876.7" class="st3" width="42.4" height="42.4"></rect></g><g><rect x="950.2" y="796.9" class="st3" width="42.4" height="42.4"></rect><rect x="950.2" y="876.7" class="st3" width="42.4" height="42.4"></rect></g><g><rect x="1028.4" y="796.9" class="st3" width="42.4" height="42.4"></rect><rect x="1028.4" y="876.7" class="st3" width="42.4" height="42.4"></rect></g><g><g><rect x="2678.1" y="398.3" class="st3" width="42.4" height="42.4"></rect><rect x="2678.1" y="478.1" class="st3" width="42.4" height="42.4"></rect></g><g><rect x="2756.3" y="398.3" class="st3" width="42.4" height="42.4"></rect><rect x="2756.3" y="478.1" class="st3" width="42.4" height="42.4"></rect></g><g><rect x="2834.5" y="398.3" class="st3" width="42.4" height="42.4"></rect><rect x="2834.5" y="478.1" class="st3" width="42.4" height="42.4"></rect></g><polygon class="st3" points="2918.8,362.4 2918.8,557.5 2978.5,654 2790.8,654 2723.2,654 2574,654 2633.7,557.5 2633.7,362.4 "></polygon><line class="st3" x1="2633.7" y1="557.5" x2="2918.8" y2="557.5"></line><polygon class="st3" points="2819.2,619.6 2783.1,619.6 2769.4,619.6 2733.3,619.6 2718.1,654 2769.4,654 2783.1,654 2834.4,654 "></polygon></g><g><circle class="st4" cx="3284.7" cy="1172.4" r="247.4"></circle></g><g><circle class="st4" cx="2305.3" cy="1172.4" r="247.4"></circle></g><g><path class="st3" d="M2359.2,1242.9c24.7,0,44.4,0,51.8,0c4.4,0,9.7-0.8,10.8-0.9c35.4-5.7,48-34,47.8-57.5 c-0.2-28.9-19.3-59.5-55.4-62.3l0,0l-1.7-0.2l-0.1-1.8c-0.6-44.3-36.4-80.3-79.9-80.3c-30.8,0-59.3,19.1-72.5,48.7l-0.7,1.5 l-1.8-0.5c-5.9-1.9-12-2.9-17.9-2.9c-22.3,0-43.6,13-54.5,34.8l-0.4,0.9l-1,0.2c-35.9,6.4-51.1,37.8-50,64.2 c0.9,21.7,13.5,47.9,45.6,54.5c2.5,0.5,11.7,1.4,14.8,1.4c9.6,0,32.5,0,60,0"></path><g><path class="st3" d="M2340.7,1194.7c0-12.9,0-24.9,0-25c0-18.9-15.3-34.1-34.1-34.1c-18.9,0-34.1,15.3-34.1,34.1 c0,0.1,0,12.4,0,25.4"></path><polygon class="st3" points="2359.2,1194.9 2359.2,1286.6 2254,1286.6 2254,1194.9 "></polygon><g><circle class="st3" cx="2305.9" cy="1233.9" r="16.3"></circle><line class="st3" x1="2305.9" y1="1251.8" x2="2305.9" y2="1267"></line></g></g></g><g><path class="st3" d="M3382.8,1243.3c5,0,8.9,0,11.4,0c4.4,0,9.7-0.8,10.8-0.9c35.4-5.7,48-34,47.8-57.5 c-0.2-28.9-19.3-59.5-55.4-62.3l0,0l-1.7-0.2l-0.1-1.8c-0.6-44.3-36.4-80.3-79.9-80.3c-30.8,0-59.3,19.1-72.5,48.7l-0.7,1.5 l-1.8-0.5c-5.9-1.9-12-2.9-17.9-2.9c-22.3,0-43.6,13-54.5,34.8l-0.4,0.9l-1,0.2c-35.9,6.4-51.1,37.8-50,64.2 c0.9,21.7,13.5,47.9,45.6,54.5c2.5,0.5,11.7,1.4,14.8,1.4c9.6,0-7.2,0,20.4,0"></path><g><circle class="st3" cx="3345.2" cy="1175" r="16.8"></circle><circle class="st3" cx="3229.3" cy="1175" r="16.8"></circle><circle class="st3" cx="3345.2" cy="1175" r="16.8"></circle><circle class="st3" cx="3229.3" cy="1175" r="16.8"></circle><path class="st3" d="M3253.6,1239.3c0-6.2,3.6-11.8,9.1-16c-1.6-4.3-4.9-8-9.2-10.9c-6.3-4.2-14.7-6.7-24-6.7s-17.8,2.5-24,6.7 c-6.3,4.2-10.4,10.2-10.4,17v46.5c0,0.1,0,0.2,0,0.4h58.6v-37H3253.6z"></path><path class="st3" d="M3322.5,1239.3c0,0,0,28,0,36.9h57.2c0-0.1,0-46.9,0-46.9c0-6.7-4.1-12.7-10.4-17c-6.3-4.2-14.7-6.7-24-6.7 s-17.8,2.5-24,6.7c-4,2.7-7.2,6.2-8.9,10.1C3318.4,1226.7,3322.5,1232.7,3322.5,1239.3z"></path><circle class="st3" cx="3287.9" cy="1184.9" r="16.8"></circle><path class="st3" d="M3322.5,1286.2c0-0.1,0-46.9,0-46.9c0-6.7-4.1-12.7-10.4-17c-6.3-4.2-14.7-6.7-24-6.7s-17.8,2.5-24,6.7 c-6.3,4.2-10.4,10.2-10.4,17v46.5c0,0.1,0,0.2,0,0.4H3322.5z"></path><circle class="st3" cx="3287.9" cy="1184.9" r="16.8"></circle><path class="st3" d="M3322.5,1286.2c0-0.1,0-46.9,0-46.9c0-6.7-4.1-12.7-10.4-17c-6.3-4.2-14.7-6.7-24-6.7s-17.8,2.5-24,6.7 c-6.3,4.2-10.4,10.2-10.4,17v46.5c0,0.1,0,0.2,0,0.4H3322.5z"></path></g></g></g><g id="Ebene_2_00000114784642034844734650000018316994739742160547_"><polygon class="st3" points="1112.7,761.1 1112.7,956.1 1172.4,1052.7 984.7,1052.7 917.1,1052.7 767.9,1052.7 827.6,956.1 827.6,761.1 "></polygon><line class="st3" x1="827.6" y1="956.1" x2="1112.7" y2="956.1"></line><polygon class="st3" points="1013.1,1018.3 977,1018.3 963.3,1018.3 927.2,1018.3 912,1052.7 963.3,1052.7 977,1052.7 1028.3,1052.7 "></polygon><g><g><path class="st4" d="M1050,540.9c33.7,0,60.6,0,70.7,0c6,0,13.2-1,14.7-1.3c48.3-7.8,65.5-46.4,65.2-78.4 c-0.3-39.4-26.3-81.2-75.6-84.9l0,0l-2.3-0.2l-0.1-2.5c-0.8-60.4-49.7-109.5-108.9-109.5c-42,0-80.9,26.1-99,66.4l-0.9,2.1 l-2.4-0.6c-8.1-2.6-16.3-3.9-24.5-3.9c-30.4,0-59.5,17.7-74.4,47.5l-0.6,1.2l-1.4,0.3c-49,8.8-69.7,51.6-68.2,87.6 c1.2,29.6,18.4,65.4,62.1,74.3c3.5,0.7,15.9,1.9,20.2,1.9c13,0,44.3,0,81.9,0L1050,540.9z"></path></g><g><path class="st0" d="M906.8,385.2c-0.4-1.1-0.8-2.2-1.4-3.1c-0.6-0.9-1.3-1.7-2.2-2.3s-1.8-1.1-2.9-1.5c-1.1-0.3-2.3-0.5-3.6-0.5 c-2.3,0-4.4,0.6-6.2,1.8s-3.2,2.9-4.3,5.1c-1,2.3-1.6,5-1.6,8.2c0,3.3,0.5,6,1.5,8.3s2.5,4,4.3,5.2s4,1.8,6.4,1.8 c2.2,0,4.1-0.4,5.7-1.3s2.9-2,3.7-3.6c0.9-1.6,1.3-3.4,1.3-5.5l1.8,0.3h-11.7V392h17.5v5.2c0,3.7-0.8,6.9-2.4,9.6 s-3.7,4.8-6.5,6.2c-2.8,1.5-5.9,2.2-9.5,2.2c-4,0-7.5-0.9-10.5-2.7s-5.3-4.3-7-7.7c-1.7-3.3-2.5-7.2-2.5-11.8 c0-3.5,0.5-6.6,1.5-9.3s2.4-5.1,4.2-7s3.9-3.4,6.3-4.4c2.4-1,5-1.5,7.8-1.5c2.4,0,4.6,0.3,6.7,1s3.9,1.7,5.5,3s2.9,2.8,4,4.6 c1,1.8,1.7,3.7,2,5.8L906.8,385.2L906.8,385.2z"></path><path class="st0" d="M936.5,415.3c-3.2,0-5.9-0.7-8.2-2.1s-4.1-3.3-5.4-5.8c-1.3-2.5-1.9-5.4-1.9-8.8s0.6-6.3,1.9-8.8 c1.3-2.5,3.1-4.5,5.4-5.9c2.3-1.4,5.1-2.1,8.2-2.1c3.2,0,5.9,0.7,8.2,2.1s4.1,3.3,5.4,5.9c1.3,2.5,1.9,5.4,1.9,8.8 s-0.6,6.3-1.9,8.8c-1.3,2.5-3.1,4.5-5.4,5.8C942.4,414.6,939.7,415.3,936.5,415.3z M936.5,409.2c1.7,0,3.1-0.5,4.3-1.4 s2-2.2,2.6-3.8s0.9-3.4,0.9-5.4s-0.3-3.8-0.9-5.4c-0.6-1.6-1.4-2.9-2.6-3.8c-1.2-1-2.6-1.4-4.3-1.4c-1.8,0-3.2,0.5-4.4,1.4 s-2,2.2-2.6,3.8s-0.9,3.4-0.9,5.4s0.3,3.8,0.9,5.4c0.6,1.6,1.4,2.9,2.6,3.8S934.8,409.2,936.5,409.2z"></path><path class="st0" d="M972.6,415.3c-3.2,0-5.9-0.7-8.2-2.1s-4.1-3.3-5.4-5.8c-1.3-2.5-1.9-5.4-1.9-8.8s0.6-6.3,1.9-8.8 s3.1-4.5,5.4-5.9s5.1-2.1,8.2-2.1c3.2,0,5.9,0.7,8.2,2.1s4.1,3.3,5.4,5.9c1.3,2.5,1.9,5.4,1.9,8.8s-0.6,6.3-1.9,8.8 s-3.1,4.5-5.4,5.8C978.5,414.6,975.8,415.3,972.6,415.3z M972.7,409.2c1.7,0,3.1-0.5,4.3-1.4s2-2.2,2.6-3.8s0.9-3.4,0.9-5.4 s-0.3-3.8-0.9-5.4c-0.6-1.6-1.4-2.9-2.6-3.8c-1.2-1-2.6-1.4-4.3-1.4c-1.8,0-3.2,0.5-4.4,1.4s-2,2.2-2.6,3.8s-0.9,3.4-0.9,5.4 s0.3,3.8,0.9,5.4c0.6,1.6,1.4,2.9,2.6,3.8S970.9,409.2,972.7,409.2z"></path><path class="st0" d="M1008.7,427.3c-2.7,0-5.1-0.4-7.1-1.1s-3.6-1.7-4.7-2.9c-1.2-1.2-2-2.6-2.5-4l6.9-1.7 c0.3,0.6,0.8,1.2,1.4,1.8s1.4,1.1,2.4,1.5s2.3,0.6,3.8,0.6c2.2,0,4-0.5,5.4-1.6c1.4-1,2.1-2.7,2.1-5v-6.1h-0.4 c-0.4,0.8-1,1.6-1.7,2.4c-0.8,0.8-1.7,1.5-3,2.1c-1.2,0.6-2.8,0.8-4.6,0.8c-2.5,0-4.7-0.6-6.8-1.8c-2-1.2-3.6-2.9-4.8-5.3 c-1.2-2.3-1.8-5.3-1.8-8.8c0-3.6,0.6-6.6,1.8-9c1.2-2.5,2.8-4.3,4.8-5.6s4.3-1.9,6.8-1.9c1.9,0,3.5,0.3,4.7,1 c1.2,0.6,2.2,1.4,2.9,2.3s1.3,1.7,1.7,2.5h0.4v-5.4h7.5V415c0,2.7-0.7,5-2,6.8s-3.1,3.2-5.4,4.1 C1014.2,426.9,1011.6,427.3,1008.7,427.3z M1008.8,408.2c1.6,0,3-0.4,4.1-1.2s2-1.9,2.6-3.4s0.9-3.2,0.9-5.3c0-2-0.3-3.8-0.9-5.4 c-0.6-1.5-1.4-2.7-2.6-3.6c-1.1-0.9-2.5-1.3-4.2-1.3s-3.1,0.4-4.3,1.3c-1.1,0.9-2,2.1-2.6,3.6s-0.9,3.3-0.9,5.2 c0,2,0.3,3.7,0.9,5.2s1.4,2.6,2.6,3.5C1005.7,407.8,1007.1,408.2,1008.8,408.2z"></path><path class="st0" d="M1039.4,371.4v43.2h-7.6v-43.2H1039.4z"></path><path class="st0" d="M1061.6,415.3c-3.2,0-6.1-0.7-8.4-2c-2.4-1.4-4.2-3.3-5.4-5.8c-1.3-2.5-1.9-5.4-1.9-8.8 c0-3.3,0.6-6.3,1.9-8.8s3.1-4.5,5.3-5.9c2.3-1.4,5-2.1,8.1-2.1c2,0,3.9,0.3,5.7,1c1.8,0.6,3.4,1.6,4.7,3c1.4,1.3,2.5,3,3.2,5.1 c0.8,2.1,1.2,4.5,1.2,7.4v2.3h-26.6v-5.1h19.2c0-1.5-0.3-2.8-0.9-3.9s-1.5-2-2.6-2.7s-2.4-1-3.8-1c-1.6,0-2.9,0.4-4.1,1.1 c-1.2,0.8-2.1,1.7-2.8,3s-1,2.5-1,4v4.5c0,1.9,0.3,3.5,1,4.8s1.7,2.4,2.9,3.1c1.2,0.7,2.7,1.1,4.3,1.1c1.1,0,2.1-0.2,3-0.5 s1.7-0.8,2.3-1.4c0.7-0.6,1.2-1.4,1.5-2.3l7.1,0.8c-0.5,1.9-1.3,3.5-2.6,4.9c-1.3,1.4-2.9,2.5-4.8,3.2 C1066.3,414.9,1064.1,415.3,1061.6,415.3z"></path><path class="st0" d="M930.2,457.3h-7.9c-0.2-1.3-0.6-2.4-1.2-3.4c-0.6-1-1.4-1.9-2.3-2.6c-0.9-0.7-1.9-1.2-3.1-1.6 c-1.1-0.4-2.4-0.5-3.7-0.5c-2.3,0-4.4,0.6-6.2,1.8s-3.2,2.9-4.3,5.1c-1,2.3-1.5,5-1.5,8.3s0.5,6.1,1.6,8.3s2.5,4,4.3,5.1 s3.9,1.7,6.2,1.7c1.3,0,2.5-0.2,3.6-0.5s2.2-0.9,3.1-1.5c0.9-0.7,1.7-1.5,2.3-2.5s1.1-2.1,1.3-3.4h7.9c-0.3,2.1-0.9,4-1.9,5.8 s-2.3,3.4-3.8,4.8c-1.6,1.4-3.4,2.4-5.5,3.2s-4.5,1.1-7,1.1c-3.8,0-7.2-0.9-10.2-2.6c-3-1.8-5.3-4.3-7-7.6s-2.6-7.3-2.6-11.9 c0-4.7,0.9-8.6,2.6-12c1.7-3.3,4.1-5.8,7.1-7.6s6.4-2.6,10.1-2.6c2.4,0,4.6,0.3,6.7,1c2.1,0.7,3.9,1.7,5.5,3s2.9,2.9,4,4.8 C929.2,452.8,929.9,454.9,930.2,457.3z"></path><path class="st0" d="M944.7,442.7v43.2h-7.6v-43.2H944.7z"></path><path class="st0" d="M966.7,486.6c-3.2,0-5.9-0.7-8.2-2.1s-4.1-3.3-5.4-5.8c-1.3-2.5-1.9-5.4-1.9-8.8s0.6-6.3,1.9-8.8 c1.3-2.5,3.1-4.5,5.4-5.9s5.1-2.1,8.2-2.1c3.2,0,5.9,0.7,8.2,2.1s4.1,3.3,5.4,5.9c1.3,2.5,1.9,5.4,1.9,8.8s-0.6,6.3-1.9,8.8 s-3.1,4.5-5.4,5.8C972.6,485.9,969.9,486.6,966.7,486.6z M966.8,480.4c1.7,0,3.1-0.5,4.3-1.4s2-2.2,2.6-3.8s0.9-3.4,0.9-5.4 s-0.3-3.8-0.9-5.4c-0.6-1.6-1.4-2.9-2.6-3.8c-1.2-1-2.6-1.4-4.3-1.4c-1.8,0-3.2,0.5-4.4,1.4s-2,2.2-2.6,3.8s-0.9,3.4-0.9,5.4 s0.3,3.8,0.9,5.4c0.6,1.6,1.4,2.9,2.6,3.8S965,480.4,966.8,480.4z"></path><path class="st0" d="M1009.3,472.3v-18.8h7.6v32.4h-7.4v-5.8h-0.3c-0.7,1.8-1.9,3.3-3.6,4.5s-3.7,1.7-6.1,1.7 c-2.1,0-4-0.5-5.6-1.4s-2.9-2.3-3.8-4.2c-0.9-1.8-1.4-4-1.4-6.6v-20.6h7.6V473c0,2.1,0.6,3.7,1.7,4.9s2.6,1.8,4.4,1.8 c1.1,0,2.2-0.3,3.3-0.8s1.9-1.4,2.6-2.5C1009,475.3,1009.3,473.9,1009.3,472.3z"></path><path class="st0" d="M1036.9,486.5c-2.5,0-4.8-0.7-6.8-2s-3.6-3.2-4.8-5.7c-1.2-2.5-1.8-5.5-1.8-9.1s0.6-6.6,1.8-9.1 s2.8-4.4,4.8-5.6c2-1.3,4.3-1.9,6.8-1.9c1.9,0,3.5,0.3,4.7,1c1.2,0.6,2.2,1.4,2.9,2.3s1.3,1.7,1.7,2.5h0.3v-16.2h7.7v43.2h-7.5 v-5.1h-0.5c-0.4,0.8-1,1.6-1.7,2.5s-1.7,1.6-3,2.2C1040.3,486.2,1038.7,486.5,1036.9,486.5z M1039,480.2c1.6,0,3-0.4,4.1-1.3 s2-2.1,2.6-3.7s0.9-3.4,0.9-5.5s-0.3-3.9-0.9-5.5c-0.6-1.5-1.4-2.7-2.6-3.6c-1.1-0.9-2.5-1.3-4.2-1.3s-3.1,0.4-4.3,1.3 c-1.1,0.9-2,2.1-2.6,3.7s-0.9,3.3-0.9,5.4c0,2,0.3,3.8,0.9,5.4s1.4,2.8,2.6,3.7C1035.9,479.8,1037.3,480.2,1039,480.2z"></path></g></g><g><path class="st0" d="M2441,151.6V73h14.2v33.3h36.4V73h14.3v78.6h-14.3v-33.4h-36.4v33.4H2441z"></path><path class="st0" d="M2529.4,173.7c-1.9,0-3.6-0.1-5.2-0.4c-1.6-0.3-2.9-0.6-3.8-1.1l3.2-10.8c3,0.9,5.6,1,7.6,0.4 c2.1-0.6,3.8-2.5,5.1-5.7l1.2-3.2l-21.4-60.2h14.7l13.6,44.5h0.6l13.6-44.5l14.9,0.1l-23.7,66c-1.1,3.1-2.6,5.7-4.4,7.9 c-1.8,2.2-4,3.9-6.7,5.1C2536.2,173.1,2533.1,173.7,2529.4,173.7z"></path><path class="st0" d="M2583.8,151.6V73h13.9v29.4h0.6c0.7-1.4,1.7-3,3-4.6s3.1-3,5.3-4.2s5.1-1.7,8.5-1.7c4.6,0,8.7,1.2,12.3,3.5 c3.7,2.3,6.6,5.7,8.8,10.3c2.2,4.5,3.2,10.1,3.2,16.6c0,6.5-1.1,12-3.2,16.5c-2.1,4.5-5,8-8.7,10.4s-7.8,3.6-12.4,3.6 c-3.4,0-6.2-0.6-8.4-1.7s-4-2.5-5.4-4.1c-1.3-1.6-2.4-3.1-3.1-4.6h-0.8v9.3L2583.8,151.6L2583.8,151.6z M2597.4,122.2 c0,3.8,0.5,7.2,1.6,10c1.1,2.9,2.7,5.1,4.7,6.7c2.1,1.6,4.6,2.4,7.5,2.4c3.1,0,5.6-0.8,7.7-2.5c2.1-1.7,3.6-3.9,4.7-6.8 c1.1-2.9,1.6-6.2,1.6-9.8c0-3.7-0.5-6.9-1.6-9.8s-2.6-5.1-4.7-6.7c-2.1-1.6-4.7-2.4-7.8-2.4c-3,0-5.5,0.8-7.6,2.3 c-2.1,1.6-3.6,3.8-4.7,6.6C2597.9,115,2597.4,118.3,2597.4,122.2z"></path><path class="st0" d="M2651.3,151.6v-59h13.5v9.8h0.6c1.1-3.4,2.9-6,5.5-7.9s5.6-2.8,9-2.8c0.8,0,1.6,0,2.6,0.1s1.8,0.2,2.4,0.3 V105c-0.6-0.2-1.5-0.4-2.8-0.6s-2.5-0.2-3.7-0.2c-2.5,0-4.8,0.5-6.8,1.6s-3.6,2.6-4.7,4.5s-1.7,4.1-1.7,6.6v34.7H2651.3z"></path><path class="st0" d="M2701.2,84.3c-2.2,0-4.1-0.7-5.7-2.2c-1.6-1.5-2.4-3.2-2.4-5.3c0-2.1,0.8-3.9,2.4-5.4 c1.6-1.5,3.5-2.2,5.7-2.2s4.1,0.7,5.7,2.2c1.6,1.5,2.4,3.3,2.4,5.4s-0.8,3.8-2.4,5.3C2705.3,83.6,2703.4,84.3,2701.2,84.3z M2694.2,151.6v-59h13.9v59H2694.2z"></path><path class="st0" d="M2744.3,152.7c-4.6,0-8.8-1.2-12.4-3.6c-3.7-2.4-6.6-5.8-8.7-10.4c-2.1-4.5-3.2-10-3.2-16.5 c0-6.6,1.1-12.1,3.2-16.6c2.2-4.5,5.1-7.9,8.8-10.3c3.7-2.3,7.8-3.5,12.3-3.5c3.5,0,6.3,0.6,8.5,1.7c2.2,1.2,4,2.6,5.3,4.2 s2.3,3.2,3,4.6h0.6V73h13.9v78.6h-13.7v-9.3h-0.8c-0.7,1.4-1.8,3-3.1,4.6c-1.4,1.6-3.1,3-5.4,4.1 C2750.5,152.1,2747.7,152.7,2744.3,152.7z M2748.2,141.3c2.9,0,5.5-0.8,7.5-2.4c2.1-1.6,3.6-3.8,4.7-6.7c1.1-2.9,1.6-6.2,1.6-10 s-0.5-7.1-1.6-9.9s-2.6-5-4.7-6.6c-2.1-1.6-4.6-2.3-7.6-2.3c-3.1,0-5.7,0.8-7.8,2.4s-3.6,3.8-4.7,6.7s-1.6,6.1-1.6,9.8 c0,3.7,0.5,7,1.6,9.8c1.1,2.9,2.6,5.1,4.7,6.8C2742.5,140.5,2745.1,141.3,2748.2,141.3z"></path><path class="st0" d="M2885.3,99.5h-14.4c-0.4-2.4-1.2-4.4-2.3-6.3c-1.1-1.8-2.5-3.4-4.1-4.7c-1.6-1.3-3.5-2.2-5.6-2.9 c-2.1-0.7-4.3-1-6.7-1c-4.3,0-8.1,1.1-11.4,3.2c-3.3,2.1-5.9,5.3-7.8,9.4c-1.9,4.1-2.8,9.1-2.8,15c0,6,0.9,11.1,2.8,15.2 c1.9,4.1,4.5,7.2,7.8,9.3s7.1,3.1,11.3,3.1c2.4,0,4.6-0.3,6.6-0.9s3.9-1.6,5.6-2.8c1.7-1.2,3-2.7,4.2-4.5c1.1-1.8,1.9-3.8,2.4-6.1 l14.4,0.1c-0.5,3.7-1.7,7.2-3.5,10.5s-4.1,6.2-7,8.7s-6.2,4.4-10.1,5.8s-8.1,2.1-12.8,2.1c-6.9,0-13.1-1.6-18.5-4.8 s-9.7-7.8-12.8-13.9c-3.1-6-4.7-13.3-4.7-21.7c0-8.5,1.6-15.7,4.7-21.8c3.1-6,7.4-10.6,12.9-13.8c5.4-3.2,11.6-4.8,18.4-4.8 c4.4,0,8.4,0.6,12.2,1.8c3.8,1.2,7.1,3,10.1,5.4c2.9,2.4,5.4,5.3,7.3,8.7C2883.5,91.3,2884.7,95.2,2885.3,99.5z"></path><path class="st0" d="M2911.7,73v78.6h-13.9V73H2911.7z"></path><path class="st0" d="M2951.7,152.8c-5.8,0-10.8-1.3-15-3.8s-7.5-6.1-9.8-10.6c-2.3-4.6-3.5-9.9-3.5-16s1.2-11.4,3.5-16 s5.6-8.1,9.8-10.7c4.2-2.5,9.2-3.8,15-3.8s10.8,1.3,15,3.8s7.5,6.1,9.8,10.7s3.5,9.9,3.5,16c0,6.1-1.2,11.4-3.5,16 s-5.6,8.1-9.8,10.6S2957.5,152.8,2951.7,152.8z M2951.8,141.7c3.1,0,5.7-0.9,7.8-2.6s3.7-4.1,4.7-7s1.6-6.2,1.6-9.8 c0-3.6-0.5-6.9-1.6-9.8c-1-2.9-2.6-5.3-4.7-7c-2.1-1.7-4.7-2.6-7.8-2.6c-3.2,0-5.9,0.9-8,2.6s-3.7,4.1-4.7,7s-1.6,6.2-1.6,9.8 c0,3.6,0.5,6.8,1.6,9.8c1,2.9,2.6,5.2,4.7,7S2948.6,141.7,2951.8,141.7z"></path><path class="st0" d="M3029.3,126.8V92.6h13.9v59h-13.5v-10.5h-0.6c-1.3,3.3-3.5,6-6.5,8.1s-6.8,3.1-11.2,3.1 c-3.9,0-7.3-0.9-10.2-2.6s-5.3-4.2-6.9-7.6c-1.7-3.3-2.5-7.3-2.5-12V92.5h13.9v35.4c0,3.7,1,6.7,3.1,8.9c2,2.2,4.7,3.3,8.1,3.3 c2,0,4-0.5,6-1.5c1.9-1,3.5-2.5,4.7-4.5C3028.7,132.3,3029.3,129.8,3029.3,126.8z"></path><path class="st0" d="M3079.4,152.7c-4.6,0-8.8-1.2-12.4-3.6c-3.7-2.4-6.6-5.8-8.7-10.4c-2.1-4.5-3.2-10-3.2-16.5 c0-6.6,1.1-12.1,3.2-16.6c2.2-4.5,5.1-7.9,8.8-10.3c3.7-2.3,7.8-3.5,12.3-3.5c3.5,0,6.3,0.6,8.5,1.7c2.2,1.2,4,2.6,5.3,4.2 s2.3,3.2,3,4.6h0.6V73h13.9v78.6H3097v-9.3h-0.8c-0.7,1.4-1.8,3-3.1,4.6c-1.4,1.6-3.1,3-5.4,4.1 C3085.6,152.1,3082.8,152.7,3079.4,152.7z M3083.3,141.3c2.9,0,5.5-0.8,7.5-2.4c2.1-1.6,3.6-3.8,4.7-6.7c1.1-2.9,1.6-6.2,1.6-10 s-0.5-7.1-1.6-9.9s-2.6-5-4.7-6.6c-2.1-1.6-4.6-2.3-7.6-2.3c-3.1,0-5.7,0.8-7.8,2.4s-3.6,3.8-4.7,6.7s-1.6,6.1-1.6,9.8 c0,3.7,0.5,7,1.6,9.8c1.1,2.9,2.6,5.1,4.7,6.8C3077.7,140.5,3080.2,141.3,3083.3,141.3z"></path></g><g><path class="st0" d="M690.9,73h17.4l23.3,57h0.9l23.3-57h17.4v78.6h-13.7v-54h-0.7l-21.7,53.8h-10.2l-21.7-53.9h-0.7v54.1h-13.7 V73H690.9z"></path><path class="st0" d="M825.9,126.8V92.6h13.9v59h-13.5v-10.5h-0.6c-1.3,3.3-3.5,6-6.5,8.1s-6.8,3.1-11.2,3.1 c-3.9,0-7.3-0.9-10.2-2.6c-3-1.7-5.3-4.2-6.9-7.6c-1.7-3.3-2.5-7.3-2.5-12V92.5h13.8v35.4c0,3.7,1,6.7,3.1,8.9 c2,2.2,4.7,3.3,8.1,3.3c2,0,4-0.5,6-1.5c1.9-1,3.5-2.5,4.7-4.5C825.3,132.3,825.9,129.8,825.9,126.8z"></path><path class="st0" d="M868,73v78.6h-13.9V73H868z"></path><path class="st0" d="M911.7,92.7v10.8h-33.9V92.7H911.7z M886.2,78.5h13.9v55.4c0,1.9,0.3,3.3,0.9,4.3c0.6,1,1.3,1.7,2.3,2 c0.9,0.4,2,0.5,3.1,0.5c0.9,0,1.7-0.1,2.4-0.2s1.3-0.2,1.7-0.3l2.3,10.9c-0.7,0.3-1.8,0.5-3.2,0.8s-3,0.5-5,0.5 c-3.5,0.1-6.6-0.4-9.4-1.6c-2.8-1.2-5-3-6.6-5.4c-1.6-2.5-2.4-5.5-2.4-9.2V78.5z"></path><path class="st0" d="M930.3,84.3c-2.2,0-4.1-0.7-5.7-2.2c-1.6-1.5-2.4-3.2-2.4-5.3c0-2.1,0.8-3.9,2.4-5.4c1.6-1.5,3.5-2.2,5.7-2.2 s4.1,0.7,5.7,2.2c1.6,1.5,2.4,3.3,2.4,5.4s-0.8,3.8-2.4,5.3C934.4,83.6,932.5,84.3,930.3,84.3z M923.3,151.6v-59h13.9v59H923.3z"></path><path class="st0" d="M1046.3,99.5h-14.4c-0.4-2.4-1.2-4.4-2.3-6.3c-1.1-1.8-2.5-3.4-4.1-4.7c-1.6-1.3-3.5-2.2-5.6-2.9 c-2.1-0.7-4.3-1-6.7-1c-4.3,0-8.1,1.1-11.4,3.2s-5.9,5.3-7.8,9.4s-2.8,9.1-2.8,15c0,6,0.9,11.1,2.8,15.2c1.9,4.1,4.5,7.2,7.8,9.3 s7.1,3.1,11.3,3.1c2.4,0,4.6-0.3,6.6-0.9c2.1-0.6,3.9-1.6,5.6-2.8s3-2.7,4.2-4.5c1.1-1.8,1.9-3.8,2.4-6.1l14.4,0.1 c-0.5,3.7-1.7,7.2-3.5,10.5s-4.1,6.2-7,8.7s-6.2,4.4-10.1,5.8c-3.8,1.4-8.1,2.1-12.8,2.1c-6.9,0-13.1-1.6-18.5-4.8 s-9.7-7.8-12.8-13.9c-3.1-6-4.7-13.3-4.7-21.7c0-8.5,1.6-15.7,4.7-21.8c3.1-6,7.4-10.6,12.9-13.8c5.4-3.2,11.6-4.8,18.4-4.8 c4.4,0,8.4,0.6,12.2,1.8c3.8,1.2,7.1,3,10.1,5.4c2.9,2.4,5.4,5.3,7.3,8.7C1044.5,91.3,1045.7,95.2,1046.3,99.5z"></path><path class="st0" d="M1072.7,73v78.6h-13.9V73H1072.7z"></path><path class="st0" d="M1112.7,152.8c-5.8,0-10.8-1.3-15-3.8s-7.5-6.1-9.8-10.6c-2.3-4.6-3.5-9.9-3.5-16s1.2-11.4,3.5-16 s5.6-8.1,9.8-10.7c4.2-2.5,9.2-3.8,15-3.8s10.8,1.3,15,3.8s7.5,6.1,9.8,10.7s3.5,9.9,3.5,16c0,6.1-1.2,11.4-3.5,16 s-5.6,8.1-9.8,10.6C1123.4,151.5,1118.5,152.8,1112.7,152.8z M1112.8,141.7c3.1,0,5.7-0.9,7.8-2.6c2.1-1.7,3.7-4.1,4.7-7 s1.6-6.2,1.6-9.8c0-3.6-0.5-6.9-1.6-9.8c-1-2.9-2.6-5.3-4.7-7s-4.7-2.6-7.8-2.6c-3.2,0-5.9,0.9-8,2.6s-3.7,4.1-4.7,7 s-1.6,6.2-1.6,9.8c0,3.6,0.5,6.8,1.6,9.8c1,2.9,2.6,5.2,4.7,7C1106.9,140.8,1109.6,141.7,1112.8,141.7z"></path><path class="st0" d="M1190.3,126.8V92.6h13.9v59h-13.5v-10.5h-0.6c-1.3,3.3-3.5,6-6.5,8.1s-6.8,3.1-11.2,3.1 c-3.9,0-7.3-0.9-10.2-2.6c-3-1.7-5.3-4.2-6.9-7.6c-1.7-3.3-2.5-7.3-2.5-12V92.5h13.9v35.4c0,3.7,1,6.7,3.1,8.9 c2,2.2,4.7,3.3,8.1,3.3c2,0,4-0.5,6-1.5c1.9-1,3.5-2.5,4.7-4.5C1189.7,132.3,1190.3,129.8,1190.3,126.8z"></path><path class="st0" d="M1240.4,152.7c-4.6,0-8.8-1.2-12.4-3.6c-3.7-2.4-6.6-5.8-8.7-10.4c-2.1-4.5-3.2-10-3.2-16.5 c0-6.6,1.1-12.1,3.2-16.6c2.2-4.5,5.1-7.9,8.8-10.3c3.7-2.3,7.8-3.5,12.3-3.5c3.5,0,6.3,0.6,8.5,1.7c2.2,1.2,4,2.6,5.3,4.2 s2.3,3.2,3,4.6h0.6V73h13.9v78.6H1258v-9.3h-0.8c-0.7,1.4-1.8,3-3.1,4.6c-1.4,1.6-3.1,3-5.4,4.1 C1246.6,152.1,1243.8,152.7,1240.4,152.7z M1244.3,141.3c2.9,0,5.5-0.8,7.5-2.4c2.1-1.6,3.6-3.8,4.7-6.7s1.6-6.2,1.6-10 s-0.5-7.1-1.6-9.9s-2.6-5-4.7-6.6s-4.6-2.3-7.6-2.3c-3.1,0-5.7,0.8-7.8,2.4c-2.1,1.6-3.6,3.8-4.7,6.7c-1.1,2.8-1.6,6.1-1.6,9.8 c0,3.7,0.5,7,1.6,9.8c1.1,2.9,2.6,5.1,4.7,6.8C1238.6,140.5,1241.2,141.3,1244.3,141.3z"></path></g><g><g><path class="st4" d="M1472.7,1516.9c33.7,0,60.6,0,70.7,0c6,0,13.2-1,14.7-1.3c48.3-7.8,65.5-46.4,65.2-78.4 c-0.3-39.4-26.3-81.2-75.6-84.9l0,0l-2.3-0.2l-0.1-2.5c-0.8-60.4-49.7-109.5-108.9-109.5c-42,0-80.9,26.1-99,66.4l-0.9,2.1 l-2.4-0.6c-8.1-2.6-16.3-3.9-24.5-3.9c-30.4,0-59.5,17.7-74.4,47.5l-0.6,1.2l-1.4,0.3c-49,8.8-69.7,51.6-68.2,87.6 c1.2,29.6,18.4,65.4,62.1,74.3c3.5,0.7,15.9,1.9,20.2,1.9c13,0,44.3,0,81.9,0H1472.7z"></path></g><g><path class="st0" d="M1328.3,1427.7h-8.4l15.2-43.2h9.7l15.2,43.2h-8.4l-11.5-34.3h-0.3L1328.3,1427.7z M1328.5,1410.7h22.8v6.3 h-22.8V1410.7z"></path><path class="st0" d="M1365,1427.7v-4.9l16.7-20.9v-0.3h-16.2v-6.3h25.5v5.2l-15.9,20.6v0.3h16.5v6.3L1365,1427.7L1365,1427.7z"></path><path class="st0" d="M1419.4,1414v-18.8h7.6v32.4h-7.4v-5.8h-0.3c-0.7,1.8-1.9,3.3-3.6,4.5s-3.7,1.7-6.1,1.7 c-2.1,0-4-0.5-5.6-1.4s-2.9-2.3-3.8-4.2c-0.9-1.8-1.4-4-1.4-6.6v-20.6h7.6v19.4c0,2.1,0.6,3.7,1.7,4.9c1.1,1.2,2.6,1.8,4.4,1.8 c1.1,0,2.2-0.3,3.3-0.8c1.1-0.5,1.9-1.4,2.6-2.5C1419.1,1417,1419.4,1415.7,1419.4,1414z"></path><path class="st0" d="M1434.9,1427.7v-32.4h7.4v5.4h0.3c0.6-1.9,1.6-3.3,3-4.3s3.1-1.5,4.9-1.5c0.4,0,0.9,0,1.4,0.1 c0.5,0,1,0.1,1.3,0.2v7c-0.3-0.1-0.8-0.2-1.5-0.3c-0.7-0.1-1.4-0.1-2-0.1c-1.4,0-2.6,0.3-3.7,0.9s-2,1.4-2.6,2.5 s-0.9,2.3-0.9,3.6v19L1434.9,1427.7L1434.9,1427.7z"></path><path class="st0" d="M1471.4,1428.3c-3.2,0-6.1-0.7-8.4-2s-4.2-3.3-5.4-5.8c-1.3-2.5-1.9-5.4-1.9-8.8c0-3.3,0.6-6.3,1.9-8.8 s3.1-4.5,5.3-5.9c2.3-1.4,5-2.1,8.1-2.1c2,0,3.9,0.3,5.7,1c1.8,0.6,3.4,1.6,4.7,3c1.4,1.3,2.5,3,3.2,5.1c0.8,2.1,1.2,4.5,1.2,7.4 v2.3h-26.6v-5.1h19.2c0-1.5-0.3-2.8-0.9-3.9s-1.5-2-2.6-2.7s-2.4-1-3.8-1c-1.6,0-2.9,0.4-4.1,1.1s-2.1,1.7-2.8,3 c-0.7,1.2-1,2.5-1,4v4.5c0,1.9,0.3,3.5,1,4.8s1.7,2.4,2.9,3.1c1.2,0.7,2.7,1.1,4.3,1.1c1.1,0,2.1-0.2,3-0.5s1.7-0.8,2.3-1.4 c0.7-0.6,1.2-1.4,1.5-2.3l7.1,0.8c-0.5,1.9-1.3,3.5-2.6,4.9c-1.3,1.4-2.9,2.5-4.8,3.2C1476.2,1427.9,1474,1428.3,1471.4,1428.3z"></path></g></g><g><g><path class="st4" d="M615.6,1516.9c33.7,0,60.6,0,70.7,0c6,0,13.2-1,14.7-1.3c48.3-7.8,65.5-46.4,65.2-78.4 c-0.3-39.4-26.3-81.2-75.6-84.9l0,0l-2.3-0.2l-0.1-2.5c-0.8-60.4-49.7-109.5-108.9-109.5c-42,0-80.9,26.1-99,66.4l-0.9,2.1 l-2.4-0.6c-8.1-2.6-16.3-3.9-24.5-3.9c-30.4,0-59.5,17.7-74.4,47.5l-0.6,1.2l-1.4,0.3c-49,8.8-69.7,51.6-68.2,87.6 c1.2,29.6,18.4,65.4,62.1,74.3c3.5,0.7,15.9,1.9,20.2,1.9c13,0,44.3,0,81.9,0H615.6z"></path></g><g><path class="st0" d="M486.2,1427.7h-8.4l15.2-43.2h9.7l15.2,43.2h-8.4l-11.5-34.3h-0.3L486.2,1427.7z M486.5,1410.7h22.8v6.3 h-22.8V1410.7z"></path><path class="st0" d="M528.7,1427.7l-12.2-43.2h8.4l7.8,31.7h0.4l8.3-31.7h7.7l8.3,31.8h0.4l7.8-31.8h8.4l-12.2,43.2h-7.7 l-8.6-30.3h-0.3l-8.7,30.3H528.7z"></path><path class="st0" d="M602.6,1396.3c-0.2-1.8-1-3.3-2.5-4.3s-3.3-1.5-5.7-1.5c-1.6,0-3,0.2-4.2,0.7s-2.1,1.2-2.7,2 c-0.6,0.8-0.9,1.8-0.9,2.9c0,0.9,0.2,1.7,0.6,2.3c0.4,0.7,1,1.2,1.7,1.7s1.5,0.8,2.4,1.2c0.9,0.3,1.8,0.6,2.6,0.8l4,1 c1.6,0.4,3.2,0.9,4.7,1.5s2.9,1.5,4.1,2.4c1.2,1,2.2,2.2,2.9,3.6s1.1,3,1.1,4.9c0,2.5-0.6,4.8-1.9,6.7c-1.3,1.9-3.2,3.4-5.6,4.5 s-5.4,1.6-8.8,1.6c-3.4,0-6.3-0.5-8.7-1.6c-2.5-1-4.4-2.6-5.8-4.6c-1.4-2-2.1-4.4-2.2-7.3h7.7c0.1,1.5,0.6,2.8,1.4,3.8 c0.8,1,1.9,1.7,3.2,2.2s2.8,0.7,4.4,0.7c1.7,0,3.2-0.3,4.5-0.8s2.3-1.2,3-2.2c0.7-0.9,1.1-2,1.1-3.2c0-1.1-0.3-2.1-1-2.8 c-0.6-0.7-1.6-1.4-2.7-1.9c-1.2-0.5-2.5-0.9-4.1-1.3l-4.9-1.3c-3.6-0.9-6.4-2.3-8.4-4.2c-2.1-1.9-3.1-4.3-3.1-7.4 c0-2.5,0.7-4.8,2.1-6.7c1.4-1.9,3.3-3.4,5.7-4.5s5.1-1.6,8.1-1.6c3.1,0,5.8,0.5,8.1,1.6s4.1,2.5,5.5,4.4c1.3,1.9,2,4,2,6.5h-7.7 L602.6,1396.3L602.6,1396.3z"></path></g></g></g><g class="st5"><path class="st0" d="M2625.3,1070.5v32.1h-3.9v-32.1H2625.3z"></path><path class="st0" d="M2636.3,1088.1v14.5h-3.7v-24.1h3.6v3.8h0.3c0.6-1.2,1.4-2.2,2.6-3c1.2-0.7,2.6-1.1,4.5-1.1 c1.6,0,3.1,0.3,4.3,1s2.2,1.7,2.9,3s1,3,1,5.1v15.3h-3.7v-15.1c0-1.9-0.5-3.4-1.5-4.4c-1-1.1-2.3-1.6-4-1.6c-1.2,0-2.2,0.3-3.2,0.8 c-0.9,0.5-1.7,1.3-2.2,2.2C2636.5,1085.5,2636.3,1086.7,2636.3,1088.1z"></path><path class="st0" d="M2668.9,1078.5v3.1h-12.5v-3.1H2668.9z M2660,1072.7h3.7v23c0,1,0.2,1.8,0.5,2.3s0.7,0.9,1.2,1 c0.5,0.1,1,0.3,1.5,0.3c0.4,0,0.7,0,1-0.1c0.3,0,0.5-0.1,0.6-0.1l0.8,3.3c-0.3,0.1-0.6,0.2-1.1,0.3c-0.4,0.1-1,0.1-1.7,0.1 c-1,0-2.1-0.2-3.1-0.7s-1.8-1.1-2.5-2.1c-0.7-0.9-1-2.1-1-3.5v-23.8H2660z"></path><path class="st0" d="M2684.3,1103.1c-2.3,0-4.3-0.5-6-1.5s-3-2.5-3.9-4.3s-1.4-4-1.4-6.5s0.5-4.6,1.4-6.5c0.9-1.9,2.2-3.4,3.8-4.4 c1.6-1.1,3.5-1.6,5.7-1.6c1.3,0,2.5,0.2,3.7,0.6c1.2,0.4,2.3,1.1,3.3,2c1,0.9,1.8,2.2,2.4,3.7s0.9,3.4,0.9,5.7v1.6h-18.6v-3.2h14.8 c0-1.4-0.3-2.6-0.8-3.6s-1.3-1.9-2.3-2.5c-1-0.6-2.2-0.9-3.5-0.9c-1.5,0-2.7,0.4-3.8,1.1s-1.9,1.7-2.5,2.8 c-0.6,1.2-0.9,2.4-0.9,3.7v2.1c0,1.8,0.3,3.4,0.9,4.6c0.6,1.3,1.5,2.2,2.6,2.9s2.4,1,3.9,1c1,0,1.9-0.1,2.6-0.4s1.5-0.7,2-1.3 c0.6-0.6,1-1.3,1.3-2.1l3.6,1c-0.4,1.2-1,2.3-1.9,3.2s-2,1.6-3.3,2.1S2686,1103.1,2684.3,1103.1z"></path><path class="st0" d="M2699.9,1102.6v-24.1h3.6v3.6h0.3c0.4-1.2,1.2-2.2,2.4-2.9s2.4-1.1,3.9-1.1c0.3,0,0.6,0,1,0s0.7,0,0.9,0v3.8 c-0.1,0-0.4-0.1-0.9-0.1s-0.9-0.1-1.4-0.1c-1.2,0-2.2,0.2-3.1,0.7c-0.9,0.5-1.6,1.2-2.2,2c-0.5,0.9-0.8,1.8-0.8,2.9v15.2 L2699.9,1102.6L2699.9,1102.6z"></path><path class="st0" d="M2725.4,1103.1c-2.3,0-4.2-0.5-5.8-1.6c-1.6-1.1-2.9-2.5-3.8-4.4c-0.9-1.9-1.3-4-1.3-6.4 c0-2.4,0.5-4.6,1.4-6.5c0.9-1.9,2.2-3.3,3.8-4.4c1.6-1.1,3.5-1.6,5.7-1.6c1.7,0,3.2,0.3,4.6,0.9c1.4,0.6,2.5,1.5,3.3,2.6 c0.8,1.1,1.4,2.4,1.6,4h-3.7c-0.3-1.1-0.9-2.1-1.9-2.9c-1-0.9-2.3-1.3-3.9-1.3c-1.4,0-2.7,0.4-3.8,1.1s-1.9,1.8-2.5,3.2 s-0.9,2.9-0.9,4.8c0,1.9,0.3,3.5,0.9,4.9c0.6,1.4,1.4,2.5,2.5,3.2c1.1,0.8,2.4,1.1,3.8,1.1c1,0,1.8-0.2,2.6-0.5s1.4-0.8,2-1.4 c0.5-0.6,0.9-1.4,1.2-2.3h3.7c-0.2,1.4-0.7,2.7-1.5,3.8s-1.9,2-3.2,2.7S2727.2,1103.1,2725.4,1103.1z"></path><path class="st0" d="M2750.1,1103.1c-2.2,0-4.1-0.5-5.7-1.6c-1.6-1-2.9-2.5-3.8-4.3c-0.9-1.9-1.4-4-1.4-6.5s0.5-4.7,1.4-6.6 c0.9-1.9,2.2-3.3,3.8-4.4c1.6-1,3.5-1.6,5.7-1.6s4.1,0.5,5.7,1.6c1.6,1.1,2.9,2.5,3.8,4.4c0.9,1.9,1.4,4.1,1.4,6.6 s-0.5,4.7-1.4,6.5c-0.9,1.9-2.2,3.3-3.8,4.3S2752.2,1103.1,2750.1,1103.1z M2750.1,1099.8c1.7,0,3-0.4,4.1-1.3 c1.1-0.9,1.9-2,2.4-3.3c0.5-1.4,0.8-2.9,0.8-4.5c0-1.6-0.3-3.1-0.8-4.5c-0.5-1.4-1.3-2.5-2.4-3.4c-1.1-0.9-2.4-1.3-4.1-1.3 c-1.7,0-3,0.4-4.1,1.3c-1.1,0.9-1.9,2-2.4,3.4c-0.5,1.4-0.8,2.9-0.8,4.5c0,1.6,0.3,3.1,0.8,4.5c0.5,1.4,1.3,2.5,2.4,3.3 S2748.4,1099.8,2750.1,1099.8z"></path><path class="st0" d="M2770.3,1088.1v14.5h-3.7v-24.1h3.6v3.8h0.3c0.6-1.2,1.4-2.2,2.6-3c1.2-0.7,2.6-1.1,4.5-1.1 c1.6,0,3.1,0.3,4.3,1s2.2,1.7,2.9,3s1,3,1,5.1v15.3h-3.7v-15.1c0-1.9-0.5-3.4-1.5-4.4c-1-1.1-2.3-1.6-4-1.6c-1.2,0-2.2,0.3-3.2,0.8 c-0.9,0.5-1.7,1.3-2.2,2.2C2770.6,1085.5,2770.3,1086.7,2770.3,1088.1z"></path><path class="st0" d="M2796.2,1088.1v14.5h-3.7v-24.1h3.6v3.8h0.3c0.6-1.2,1.4-2.2,2.6-3c1.1-0.7,2.6-1.1,4.5-1.1 c1.6,0,3.1,0.3,4.3,1s2.2,1.7,2.9,3s1,3,1,5.1v15.3h-3.7v-15.1c0-1.9-0.5-3.4-1.5-4.4c-1-1.1-2.3-1.6-4-1.6c-1.2,0-2.2,0.3-3.2,0.8 c-0.9,0.5-1.7,1.3-2.2,2.2S2796.2,1086.7,2796.2,1088.1z"></path><path class="st0" d="M2828.4,1103.1c-2.3,0-4.3-0.5-6-1.5s-3-2.5-3.9-4.3s-1.4-4-1.4-6.5s0.5-4.6,1.4-6.5c0.9-1.9,2.2-3.4,3.8-4.4 c1.6-1.1,3.5-1.6,5.7-1.6c1.3,0,2.5,0.2,3.7,0.6c1.2,0.4,2.3,1.1,3.3,2c1,0.9,1.8,2.2,2.4,3.7s0.9,3.4,0.9,5.7v1.6h-18.6v-3.2h14.8 c0-1.4-0.3-2.6-0.8-3.6c-0.5-1.1-1.3-1.9-2.3-2.5c-1-0.6-2.2-0.9-3.5-0.9c-1.5,0-2.7,0.4-3.8,1.1s-1.9,1.7-2.5,2.8 c-0.6,1.2-0.9,2.4-0.9,3.7v2.1c0,1.8,0.3,3.4,0.9,4.6s1.5,2.2,2.6,2.9c1.1,0.7,2.4,1,3.9,1c1,0,1.9-0.1,2.6-0.4s1.5-0.7,2-1.3 c0.6-0.6,1-1.3,1.3-2.1l3.6,1c-0.4,1.2-1,2.3-1.9,3.2s-2,1.6-3.3,2.1C2831.5,1102.9,2830,1103.1,2828.4,1103.1z"></path><path class="st0" d="M2853.8,1103.1c-2.3,0-4.2-0.5-5.8-1.6c-1.6-1.1-2.9-2.5-3.8-4.4c-0.9-1.9-1.3-4-1.3-6.4 c0-2.4,0.5-4.6,1.4-6.5c0.9-1.9,2.2-3.3,3.8-4.4c1.6-1.1,3.5-1.6,5.7-1.6c1.7,0,3.2,0.3,4.6,0.9c1.4,0.6,2.5,1.5,3.3,2.6 c0.8,1.1,1.4,2.4,1.6,4h-3.7c-0.3-1.1-0.9-2.1-1.9-2.9c-1-0.9-2.3-1.3-3.9-1.3c-1.4,0-2.7,0.4-3.8,1.1s-1.9,1.8-2.5,3.2 s-0.9,2.9-0.9,4.8c0,1.9,0.3,3.5,0.9,4.9c0.6,1.4,1.4,2.5,2.5,3.2c1.1,0.8,2.4,1.1,3.8,1.1c1,0,1.8-0.2,2.6-0.5s1.4-0.8,2-1.4 c0.5-0.6,0.9-1.4,1.2-2.3h3.7c-0.2,1.4-0.7,2.7-1.5,3.8s-1.9,2-3.2,2.7S2855.6,1103.1,2853.8,1103.1z"></path><path class="st0" d="M2879.1,1078.5v3.1h-12.5v-3.1H2879.1z M2870.3,1072.7h3.7v23c0,1,0.2,1.8,0.5,2.3s0.7,0.9,1.2,1 c0.5,0.1,1,0.3,1.5,0.3c0.4,0,0.7,0,1-0.1c0.3,0,0.5-0.1,0.6-0.1l0.8,3.3c-0.3,0.1-0.6,0.2-1.1,0.3c-0.5,0.1-1,0.1-1.7,0.1 c-1,0-2.1-0.2-3.1-0.7s-1.8-1.1-2.5-2.1s-1-2.1-1-3.5v-23.8H2870.3z"></path><path class="st0" d="M2886.6,1074.5c-0.7,0-1.3-0.2-1.9-0.7s-0.8-1.1-0.8-1.8s0.3-1.3,0.8-1.8s1.1-0.7,1.9-0.7 c0.7,0,1.3,0.2,1.9,0.7s0.8,1.1,0.8,1.8c0,0.7-0.3,1.3-0.8,1.8S2887.3,1074.5,2886.6,1074.5z M2884.7,1102.6v-24.1h3.7v24.1H2884.7 z"></path><path class="st0" d="M2914.9,1078.5l-8.9,24.1h-3.8l-8.9-24.1h4l6.6,19.2h0.3l6.6-19.2H2914.9z"></path><path class="st0" d="M2921.7,1074.5c-0.7,0-1.3-0.2-1.9-0.7s-0.8-1.1-0.8-1.8s0.3-1.3,0.8-1.8s1.1-0.7,1.9-0.7 c0.7,0,1.3,0.2,1.9,0.7c0.5,0.5,0.8,1.1,0.8,1.8c0,0.7-0.3,1.3-0.8,1.8C2923,1074.3,2922.4,1074.5,2921.7,1074.5z M2919.8,1102.6 v-24.1h3.7v24.1H2919.8z"></path><path class="st0" d="M2940.7,1078.5v3.1h-12.5v-3.1H2940.7z M2931.9,1072.7h3.7v23c0,1,0.2,1.8,0.5,2.3s0.7,0.9,1.2,1 c0.5,0.2,1,0.3,1.5,0.3c0.4,0,0.7,0,1-0.1c0.3,0,0.5-0.1,0.6-0.1l0.8,3.3c-0.3,0.1-0.6,0.2-1.1,0.3c-0.4,0.1-1,0.1-1.7,0.1 c-1,0-2.1-0.2-3.1-0.7s-1.8-1.1-2.5-2.1s-1-2.1-1-3.5v-23.8H2931.9z"></path><path class="st0" d="M2948.7,1111.6c-0.6,0-1.2,0-1.7-0.1c-0.5-0.1-0.8-0.2-1-0.3l0.9-3.3c1.3,0.3,2.5,0.3,3.4,0 c0.9-0.4,1.7-1.4,2.3-3.2l0.7-1.9l-8.9-24.2h4l6.6,19.2h0.3l6.6-19.2l4,0.1l-10.3,27.5c-0.5,1.2-1,2.2-1.7,3s-1.5,1.4-2.4,1.8 C2950.8,1111.4,2949.8,1111.6,2948.7,1111.6z"></path></g></svg> 